<svg xmlns="http://www.w3.org/2000/svg" width="158.998" height="62.887" viewBox="0 0 158.998 62.887">
  <g id="ChefLuke-Logo" transform="translate(0.006)">
    <path id="Path_527" data-name="Path 527" d="M49.807,80.91a2.907,2.907,0,0,0-.507.785A.853.853,0,0,0,49.807,80.91Z" transform="translate(-30.785 -50.518)" fill="#c29820"/>
    <path id="Path_528" data-name="Path 528" d="M52.1,78.347c-.041-.03-.124-.064-.165-.03a.353.353,0,0,0-.15.376.548.548,0,0,0,.316-.346Z" transform="translate(-32.331 -48.89)" fill="#c29820"/>
    <path id="Path_529" data-name="Path 529" d="M44.3,91.86c-.038,0-.041-.034-.079-.03a.417.417,0,0,0-.079.2C44.343,92.062,44.3,91.961,44.3,91.86Z" transform="translate(-27.564 -57.336)" fill="#c29820"/>
    <path id="Path_530" data-name="Path 530" d="M41.25,96.958c.041,0,.041,0,.083.03.038-.1.24-.105.071-.308A2.021,2.021,0,0,0,41.25,96.958Z" transform="translate(-25.759 -60.365)" fill="#c29820"/>
    <path id="Path_531" data-name="Path 531" d="M54.922,72.592l.353-.417a.237.237,0,0,1,.038-.135.421.421,0,0,0-.162-.03.883.883,0,0,0-.158.24c-.038.034-.038.1-.075.139-.116.207-.316.413-.428.654a.3.3,0,0,1,.041.1c.041-.034.12-.038.12-.071.079-.1.237-.207.192-.376C54.8,72.664,54.922,72.626,54.922,72.592Z" transform="translate(-34.026 -44.961)" fill="#c29820"/>
    <path id="Path_532" data-name="Path 532" d="M57.423,69.89l-.079.038a1.939,1.939,0,0,1-.154.308c.2-.038.319-.109.316-.244A.3.3,0,0,0,57.423,69.89Z" transform="translate(-35.712 -43.638)" fill="#c29820"/>
    <path id="Path_533" data-name="Path 533" d="M43.376,92.888c.2-.143.357-.282.27-.518C43.41,92.547,43.293,92.787,43.376,92.888Z" transform="translate(-27.07 -57.674)" fill="#c29820"/>
    <path id="Path_534" data-name="Path 534" d="M38.7,107.126l.038.034.237-.346c-.041,0-.041-.034-.083-.034A1.067,1.067,0,0,1,38.7,107.126Z" transform="translate(-24.167 -66.671)" fill="#c29820"/>
    <path id="Path_535" data-name="Path 535" d="M42.91,98.632c.041,0,.041.034.083.034a3.7,3.7,0,0,1,.327-.586h-.083a3.418,3.418,0,0,1-.327.552Z" transform="translate(-26.796 -61.239)" fill="#c29820"/>
    <path id="Path_536" data-name="Path 536" d="M26.2,75.9a1.792,1.792,0,0,0,.669-.729,10.929,10.929,0,0,0,.9-1.416,7.108,7.108,0,0,0,.5-1.127,4.759,4.759,0,0,0,.413-1.266,5.536,5.536,0,0,0,.255-1.127c.038-.173-.045-.338,0-.545l.094-.661a1.236,1.236,0,0,0,.15-.515A2.009,2.009,0,0,0,29,67.67a5.717,5.717,0,0,0-.669-.969,1.833,1.833,0,0,1-.342-.808,3.2,3.2,0,0,0-.3-.5c-.165-.131-.376-.2-.413-.376-.128-.233-.451-.376-.5-.635a.161.161,0,0,0-.079-.03c-.289-.2-.5-.4-.781-.56-.409-.2-.819-.376-1.225-.548l-1.709-.47a4.27,4.27,0,0,0-.687-.053c-.162-.03-.282,0-.447-.023-.485-.023-.89-.083-1.375-.105a.549.549,0,0,1-.162-.064l-.244-.1a11.282,11.282,0,0,0-1.213.064,1.852,1.852,0,0,0-1.044.2h-.083a5.194,5.194,0,0,0-.725,0c-.8.154-1.649.274-2.494.466s-1.81.417-2.652.672a12.736,12.736,0,0,0-1.243.338,1.78,1.78,0,0,0-.443.109L8.5,64.928c-.642.218-1.322.575-1.961.86a.661.661,0,0,0-.24.075,5.785,5.785,0,0,0-.8.376c-.477.319-.913.635-1.348.984a8.165,8.165,0,0,0-1.668,1.3c-.274.312-.631.593-.909.939s-.346.7-.582,1.018c-.116.207-.192.413-.308.586a.992.992,0,0,0-.349.687.616.616,0,0,1-.192.346c-.041.034-.038.1-.079.169,0,.2-.03.443-.023.68A2.727,2.727,0,0,0,0,73.537c.045.27.053.545.1.815.045.2.173.436.218.639a1.277,1.277,0,0,1-.026.545,1.574,1.574,0,0,0-.222.924c0,.135.049.3.053.439.041.068.041.169.086.237a4.579,4.579,0,0,0,.8,1.24,2.835,2.835,0,0,0,.5.421,7.243,7.243,0,0,0,.9.556.774.774,0,0,0,.376.128,2.659,2.659,0,0,0,.684-.116c.2-.041.319-.177.316-.316s-.165-.2-.376-.229c-.041,0-.079.038-.12,0a.255.255,0,0,1-.086-.169c-.041-.064,0-.169-.045-.237a2.678,2.678,0,0,1-.522-.6v-.034a2.145,2.145,0,0,1-.252-.4c-.124-.169-.169-.334-.293-.537,0-.068.034-.169,0-.237a10.71,10.71,0,0,1-.533-1.247.639.639,0,0,1,0-.751,3.1,3.1,0,0,1,.376-.721,6.83,6.83,0,0,1,.545-.864c.192-.342.511-.624.7-.965a1.243,1.243,0,0,1,.477-.376.7.7,0,0,0,.316-.244.98.98,0,0,1,.278-.278c.274-.312.593-.593.868-.905.237-.177.394-.417.593-.556a8.357,8.357,0,0,1,.871-.635c.481-.316.917-.631,1.352-.947a.184.184,0,0,0,.12-.038,3.006,3.006,0,0,0,.319-.143c.282-.143.518-.285.751-.376.522-.214,1.04-.4,1.6-.612.2-.075.394-.282.639-.222H11.4c.481-.18,1-.376,1.442-.511.522-.146,1.086-.3,1.608-.409s1-.229,1.525-.342c.376-.041.725-.188,1.127-.229s.751-.12,1.168-.165a4.284,4.284,0,0,0,.646-.083,5.664,5.664,0,0,1,1.33-.131c.2,0,.376-.045.563-.049a2.72,2.72,0,0,1,1.172.109h.177c.041,0,.083.03.045.1-.233.413-.507.86-.778,1.273a1.306,1.306,0,0,0-.158.244c-.237.274-.376.586-.624.9a10.579,10.579,0,0,1-.7,1.206l-.038.135a9.3,9.3,0,0,1-.59.8c-.274.346-.3.789-.62,1.1-.041,0-.079.071-.116.105l-.116.342a8.7,8.7,0,0,0-.894,1.5,1.157,1.157,0,0,1-.15.376,7.621,7.621,0,0,0-.47.725c-.27.451-.5.9-.751,1.379-.116.173-.15.376-.267.548-.158.274-.312.552-.507.826a8.831,8.831,0,0,1-.466.894,3.38,3.38,0,0,1-.267.552c-.079.139-.158.24-.282.177a.308.308,0,0,0-.24.038.252.252,0,0,1-.162-.03c-.041-.03,0-.1,0-.135.079-.068.116-.139.2-.173,0-.034.038-.038.079-.038a.24.24,0,0,0,.083.135c.12-.139.278-.278.2-.376-.128-.2.034-.237.154-.308l.116-.105v-.034H14.6a.578.578,0,0,1,.071-.376c0-.034.079-.068.12-.068a.079.079,0,0,1,.083.064c.041.034.041.068.041.135.079-.139.237-.244.075-.342s-.165-.131-.09-.27a6.177,6.177,0,0,0,.473-.62c.113-.244.109-.481.3-.687.041,0,.041-.071.041-.071.27-.548.458-1.1.729-1.611.192-.447.424-.826.616-1.24a1.127,1.127,0,0,0,.116-.24,9.331,9.331,0,0,0,.657-1.273c.2-.308.225-.684.5-1v-.068c.038-.139.034-.274.071-.409a1.149,1.149,0,0,0,.064-.819,1.029,1.029,0,0,0-.751-.526c-.285-.06-.609-.086-.935-.18-.2-.03-.406-.128-.65-.158a.691.691,0,0,0-.376-.023,1.6,1.6,0,0,0-.316.346.353.353,0,0,0-.075.207c-.038.1-.034.237-.071.342l-.5,1.164c-.154.432-.4.879-.556,1.326-.113.24-.27.447-.376.687a2.423,2.423,0,0,1-.15.515.225.225,0,0,0-.075.139.646.646,0,0,0-.158.207.751.751,0,0,0-.075.274c-.079.068-.079.135-.116.24s-.116.173-.075.237c.045.135-.034.207-.113.312a8.483,8.483,0,0,0-.507.793c-.038.034-.038.068-.079.068a1.4,1.4,0,0,1-.071.409c-.113.278-.312.518-.376.751-.079.105-.034.237-.113.342a7.78,7.78,0,0,1-.424.793,1.435,1.435,0,0,0-.259.992l-.041.034-.466.725c-.158.308-.349.62-.5.928a1.732,1.732,0,0,1-.312.586c-.038.135-.158.105-.282.075s-.12-.1-.2-.131c-.2-.03-.207-.131-.169-.233.041-.038.041-.038.041-.071a1.04,1.04,0,0,0-.285-.026.424.424,0,0,0,.116-.274.462.462,0,0,0,.075-.207,2.535,2.535,0,0,0-.522.083.684.684,0,0,0-.466.661.488.488,0,0,1,0,.342c-.158.173-.075.3.049.406l.285.2c.169.2,1.018.349,1.187.552a.331.331,0,0,1-.034.27c0,.068-.038.105-.038.173a.139.139,0,0,0-.2.038c.045.2-.071.342-.068.443-.079.139-.116.274-.2.413-.038,0-.079,0-.079-.034-.2.177-.113.342-.15.548L8.9,83.2c-.233.413-.47.751-.661,1.127-.15.443-1.574,3.5-1.807,3.914a.436.436,0,0,0-.075.207A8.843,8.843,0,0,1,5.428,90.1c-.116.24-.154.346.053.507.041.034.041.1.045.169-.12.139-.075.274.086.376a.229.229,0,0,0,.124.068.116.116,0,0,0,.038-.105l.116-.274.083.1c.165.1.248.2.169.376a.252.252,0,0,0,.21.376c.124,0,.165.068.165.169,0,.034-.075.1-.2.139a3.363,3.363,0,0,0-.56.252l-.853.439c-.12.105-.278.21-.233.447.041.1.128.237-.03.376l.041.068a1.014,1.014,0,0,0,.282.026,4.341,4.341,0,0,0,.725-.188.331.331,0,0,0,.158-.071L6.6,93.1a5.707,5.707,0,0,0,.8-.289c.162-.038.319-.146.526,0a.98.98,0,0,0,.443,0c.24-.109.481-.252.68-.357,1.4-.511,1.037-.6,1.36-.642.24-.041.522-.083.593-.376,0-.034,0-.068.041-.068.116-.105.116-.24.034-.308a1.311,1.311,0,0,0-.563-.316c-.24,0,.409.162-.639.357a1.006,1.006,0,0,0,.2-.346c.075-.169-.537-.53-.5-.669a2.7,2.7,0,0,1,.154-.342,8.639,8.639,0,0,0,.342-.89,4.508,4.508,0,0,0,.447-.725c.075-.207,1.341-3.054,1.416-3.294a11.427,11.427,0,0,0,.695-1.341l.811-1.653a.376.376,0,0,1,.278-.143c.162-.038.289.2.447.162.406-.045.571.225.973.147a7.228,7.228,0,0,0,.849-.124,8.692,8.692,0,0,0,.92-.293,1.529,1.529,0,0,0,.563-.18,3.039,3.039,0,0,1,1-.331,2.957,2.957,0,0,0,.721-.255c.481-.214.92-.5,1.4-.751l.9-.522a6.814,6.814,0,0,0,.834-.6l.12-.071a6.011,6.011,0,0,0,1.153-.774c.24-.143.4-.282.639-.424l.116-.1c.12-.139.2-.312.376-.376a2.745,2.745,0,0,0,.635-.492A8.287,8.287,0,0,1,26.2,75.9Zm2.34-8.177a1.127,1.127,0,0,1,.3,1.01C28.777,68.395,28.487,68.1,28.544,67.723ZM11.032,80.028c-.045-.169.113-.274.192-.447C11.265,79.885,11.231,79.987,11.032,80.028Zm.811-1.5a1.074,1.074,0,0,1-.511.627c.233-.346.349-.654.545-.965,0,.034.041.034.041.068-.12.019-.2.124-.075.255ZM21.384,66.75c.248.2.248.233-.034.376a.793.793,0,0,1-.2.105s0-.034-.041-.034a2.606,2.606,0,0,0,.274-.462Zm-.353.639c0,.034.041.034.041.034a.687.687,0,0,1-.158.207.12.12,0,0,0-.079-.03Zm-.545.8s.038,0,.041.03c-.079.105-.038.274-.237.376-.041-.03-.041-.03-.079-.03a1.307,1.307,0,0,1,.278-.376Zm-6.63,10.179h.12a.812.812,0,0,0-.075.24h-.079a2.22,2.22,0,0,1,.038-.24Zm.1.947c-.038.038-.162.038-.24.041l-.045-.135a1.029,1.029,0,0,1,.6-.59c-.116.207-.192.443-.308.684Zm10.119-4.553a12.08,12.08,0,0,1-2.1,1.75c-.162.105-.319.278-.477.376a3.643,3.643,0,0,1-.717.376c-.162,0-.278.143-.4.214a3.554,3.554,0,0,0-.481.282c-.2.143-.477.252-.593.526l-.237.105a11.052,11.052,0,0,1-1.762.721c-.485.116-.883.293-1.322.439l-1.326.338a1.342,1.342,0,0,1-.285-.06c-.041,0-.079.034-.162.038a.3.3,0,0,1,.038-.173c.116-.274.27-.548.376-.823l.079-.071c.12-.105.24-.143.319-.244.041-.038.038-.139.038-.173.079-.068.158-.105.2-.207.116-.207.192-.447.349-.687l-.162.105-.041-.034a.894.894,0,0,0,.038-.169l.165.1c.116-.105.034-.207-.049-.3s-.124-.135,0-.207a2.039,2.039,0,0,0,.274-.312c-.165-.1-.128-.233.075-.342a.169.169,0,0,0,.034-.135.316.316,0,0,0,.038-.173l.47-.721c.038-.038,0-.139.034-.207a2.351,2.351,0,0,1,.349-.62,2.343,2.343,0,0,1,.075-.24c.038-.068.12-.105.2-.173a.2.2,0,0,0,.12-.038c.038-.034.038-.068.079-.071.278-.109.278-.109.376-.417l-.376.113c.312-.417.312-.417.477-.319.158-.173.154-.24,0-.338-.041.034-.083.034-.079.068a.24.24,0,0,0-.12.071c0-.034,0-.034-.041-.03a2.129,2.129,0,0,0,.192-.413h.079v.109a.593.593,0,0,0,.162.064.883.883,0,0,0,.192-.477c-.12.068-.158.139-.278.21,0-.068-.041-.135,0-.173l.428-.721.116-.207c.079-.038.079-.105.116-.173.075-.207.2-.376.27-.552.041.034.041.034.083.034l-.2.492a.327.327,0,0,0,.376-.177.424.424,0,0,1,.075-.24c.2-.244.154-.312-.09-.338l.038-.139.237-.346c.075-.169.237-.207.439-.214.12,0,.12-.034.154-.173a.785.785,0,0,1-.2.109,1.39,1.39,0,0,0,.034-.376,3.215,3.215,0,0,1,.477-.248v.034l.751-1.127a6.865,6.865,0,0,0,.413-.7c.116-.207.353-.417.376-.62.034-.409.428-.691.665-1a3.382,3.382,0,0,1,.353-.451l.116-.24a.353.353,0,0,1,.319-.143,6.206,6.206,0,0,1,1.581.3c.162.03.376.2.612.255.124.068.285.1.376.162.041,0,.041.034.083.034.248.229.533.462.785.729a6.824,6.824,0,0,1,.545.838,1.39,1.39,0,0,1,.229,1.183c0,.1-.075.2-.075.342a1.63,1.63,0,0,0-.192.443,8.805,8.805,0,0,1-.331,1.3c-.15.481-.342.962-.533,1.442-.233.413-.466.826-.751,1.24a5.459,5.459,0,0,1-.59.691A10.7,10.7,0,0,1,24.078,74.758Z" transform="translate(0 -38.98)" fill="#c29820"/>
    <path id="Path_537" data-name="Path 537" d="M161.694,99.211c.316-.413.627-.83.98-1.247-.038,0-.038,0-.041-.034-.158.177-.353.349-.511.556a3.813,3.813,0,0,1-.511.59,4.323,4.323,0,0,0-.83.8,6.883,6.883,0,0,1-.984,1.108,13.821,13.821,0,0,1-1.225,1.255.376.376,0,0,0-.113.274s0,.034.041.03.079,0,.079-.034c.116-.173.319-.244.436-.349.316-.376.706-.868,1.1-1.285.237-.244.436-.485.71-.751A4.024,4.024,0,0,1,161.694,99.211Z" transform="translate(-98.942 -61.145)" fill="#c29820"/>
    <path id="Path_538" data-name="Path 538" d="M155.309,108.524c.041.03.12-.038.2-.075s.038-.1.075-.1a7.965,7.965,0,0,1,.552-.593l.95-.838c.278-.177.432-.518.751-.729.158-.109.2-.312.312-.451a14,14,0,0,0,.943-1.127v-.1c-.083-.1-.162-.03-.24.071-.158.139-.2.346-.316.417-.357.278-.548.657-.864.935-.237.312-.6.526-.71.834-.4.146-.47.556-.793.7a5.968,5.968,0,0,0-.826.868.135.135,0,0,0-.038.192Z" transform="translate(-96.96 -65.222)" fill="#c29820"/>
    <path id="Path_539" data-name="Path 539" d="M157.432,110.586c.041-.038.038-.071,0-.1a.045.045,0,0,0-.079.034.518.518,0,0,0-.353.376C157.154,110.83,157.376,110.755,157.432,110.586Z" transform="translate(-98.031 -68.974)" fill="#c29820"/>
    <path id="Path_540" data-name="Path 540" d="M171.151,98.07s-.083,0-.079.071c-.041,0,.041.034.12.03,0,0,.041,0,0-.034S171.192,98.07,171.151,98.07Z" transform="translate(-106.81 -61.233)" fill="#c29820"/>
    <path id="Path_541" data-name="Path 541" d="M171.934,91.663c-.312.376-.669.751-.939,1.127a1.98,1.98,0,0,1-.237.274,1.412,1.412,0,0,0-.548.729c.2-.143.274-.346.473-.455a1.446,1.446,0,0,0,.316-.346.676.676,0,0,1,.274-.278c0-.068.041-.105.158-.244a4.372,4.372,0,0,0,.552-.624c.038-.068.075-.173.034-.237C171.975,91.629,171.934,91.629,171.934,91.663Z" transform="translate(-106.279 -57.199)" fill="#c29820"/>
    <path id="Path_542" data-name="Path 542" d="M131.527,106.769c-.079-.034-.12.071-.2.139a.354.354,0,0,0-.038.105h.244C131.53,106.9,131.651,106.8,131.527,106.769Z" transform="translate(-81.978 -66.66)" fill="#c29820"/>
    <path id="Path_543" data-name="Path 543" d="M171.9,97.378c.079-.038.12-.071.079-.139a.086.086,0,0,0-.079.139Z" transform="translate(-107.322 -60.713)" fill="#c29820"/>
    <path id="Path_544" data-name="Path 544" d="M169.721,97.642c.12,0,.12-.038.116-.071s.041-.068,0-.034c-.12,0-.162,0-.158.071S169.721,97.642,169.721,97.642Z" transform="translate(-105.948 -60.891)" fill="#c29820"/>
    <path id="Path_545" data-name="Path 545" d="M175.426,90.989c0-.135-.049-.237-.053-.439a3.16,3.16,0,0,0-.353.417C175.14,90.862,175.3,90.959,175.426,90.989Z" transform="translate(-109.282 -56.537)" fill="#c29820"/>
    <path id="Path_546" data-name="Path 546" d="M149.21,137.646a.436.436,0,0,1,.248.267.515.515,0,0,0-.045-.27A.414.414,0,0,0,149.21,137.646Z" transform="translate(-93.167 -85.934)" fill="#c29820"/>
    <path id="Path_547" data-name="Path 547" d="M149.87,137.11a.222.222,0,0,0-.075.207A.133.133,0,0,0,149.87,137.11Z" transform="translate(-93.53 -85.608)" fill="#c29820"/>
    <path id="Path_548" data-name="Path 548" d="M149.768,131.878c.041,0,.12,0,.12-.071.034-.237-.248-.2-.413-.3.086.1,0,.173-.075.24a1.2,1.2,0,0,1,.327.026C149.768,131.811,149.806,131.844,149.768,131.878Z" transform="translate(-93.286 -82.112)" fill="#c29820"/>
    <path id="Path_549" data-name="Path 549" d="M183.53,78.1c-.2.278-.312.586-.548.725a3,3,0,0,0-.624,1c-.041.034-.079.068-.038.135s.244.03.24-.075.158-.105.2-.139c.12-.105.158-.173.154-.274-.079,0-.079.1-.2.071,0-.27.113-.376.376-.376.083.034.12,0,.161-.071a.677.677,0,0,1,.071-.274.908.908,0,0,0-.158.173c.038-.169.038-.169.158-.173.2-.105.278-.312.394-.451s.158-.24,0-.376C183.6,77.965,183.567,78.037,183.53,78.1Z" transform="translate(-113.829 -48.697)" fill="#c29820"/>
    <path id="Path_550" data-name="Path 550" d="M173.4,94.165c.041,0,.041-.034,0-.068a.046.046,0,0,0-.079.038.954.954,0,0,1-.282.143A.451.451,0,0,0,173.4,94.165Z" transform="translate(-108.046 -58.743)" fill="#c29820"/>
    <path id="Path_551" data-name="Path 551" d="M149.943,129.412c.083.034.2-.038.319-.109-.12,0-.2-.131-.323,0C149.9,129.314,149.9,129.382,149.943,129.412Z" transform="translate(-93.603 -80.697)" fill="#c29820"/>
    <path id="Path_552" data-name="Path 552" d="M165.9,101.654c.083.034.162-.038.2-.038l.116-.105a14.011,14.011,0,0,0,.98-1.315.316.316,0,0,0-.278.109,1.751,1.751,0,0,1-.357.349c.041.03.124.064.041.1a.1.1,0,0,1-.041-.1l-.669.83C165.923,101.518,165.765,101.59,165.9,101.654Z" transform="translate(-103.554 -62.559)" fill="#c29820"/>
    <path id="Path_553" data-name="Path 553" d="M150.124,128.228c.038.03.079,0,.12,0,.2-.143-.086-.2-.049-.338C150.079,128.025,150.053,128.127,150.124,128.228Z" transform="translate(-93.713 -79.852)" fill="#c29820"/>
    <path id="Path_554" data-name="Path 554" d="M149.886,142.45c-.041.1-.12.139-.116.207s.083.1.083.1c.079-.068.034-.169.034-.2S149.924,142.484,149.886,142.45Z" transform="translate(-93.516 -88.943)" fill="#c29820"/>
    <path id="Path_555" data-name="Path 555" d="M150.742,148.738c.038-.173-.086-.338,0-.477a.161.161,0,0,0-.2-.064h-.079l.041.1c.244.128.049.338,0,.473C150.543,148.742,150.749,148.975,150.742,148.738Z" transform="translate(-93.947 -92.523)" fill="#c29820"/>
    <path id="Path_556" data-name="Path 556" d="M169.831,99.081c.041,0,.041-.071,0-.1s-.124,0-.12.034c-.12.173-.376.214-.316.417A.8.8,0,0,0,169.831,99.081Z" transform="translate(-105.764 -61.793)" fill="#c29820"/>
    <path id="Path_557" data-name="Path 557" d="M181.444,84.5c.038-.135-.045-.135-.086-.169s-.12,0-.158.038c.038.034.041.068.079.068C181.324,84.5,181.407,84.571,181.444,84.5Z" transform="translate(-113.141 -52.643)" fill="#c29820"/>
    <path id="Path_558" data-name="Path 558" d="M150.312,147.032a.811.811,0,0,1,.075-.24c.079-.071,0-.1-.083-.1s-.041.038-.038.071C150.271,146.9,150.23,146.964,150.312,147.032Z" transform="translate(-93.819 -91.59)" fill="#c29820"/>
    <path id="Path_559" data-name="Path 559" d="M150.981,150.831a.425.425,0,0,1,.083.2c.045.135.086.2.207.233a.128.128,0,0,0-.041-.169c-.083-.1-.207-.165-.049-.3.041,0-.086-.2-.128-.27s-.079.038-.12.071C150.853,150.688,150.857,150.767,150.981,150.831Z" transform="translate(-94.209 -93.969)" fill="#c29820"/>
    <path id="Path_560" data-name="Path 560" d="M148.59,134.1c0,.068,0,.1.083.1a.041.041,0,0,0,.041-.038c0-.068,0-.1-.045-.1Z" transform="translate(-92.78 -83.704)" fill="#c29820"/>
    <path id="Path_561" data-name="Path 561" d="M150.728,126.87c-.079.068-.2.173-.154.274C150.728,127.107,150.773,127.039,150.728,126.87Z" transform="translate(-94.012 -79.215)" fill="#c29820"/>
    <path id="Path_562" data-name="Path 562" d="M150.711,126c0-.034-.041-.034-.079-.034s0,.1,0,.1Z" transform="translate(-94.045 -78.653)" fill="#c29820"/>
    <path id="Path_563" data-name="Path 563" d="M151.58,123.284c.041.034.083,0,.041-.034s0-.068-.041-.068c-.045-.068-.124,0-.12.038S151.46,123.287,151.58,123.284Z" transform="translate(-94.572 -76.894)" fill="#c29820"/>
    <path id="Path_564" data-name="Path 564" d="M150.54,120.949c.083.1.12.03.244.026C150.713,120.949,150.619,120.877,150.54,120.949Z" transform="translate(-93.997 -75.498)" fill="#c29820"/>
    <path id="Path_565" data-name="Path 565" d="M149.824,132.592c.041.034.083.068.12,0s.038-.173-.045-.169-.083-.034-.083-.068c-.161,0-.083-.068-.041-.135-.323.041-.319.21-.278.346C149.58,132.633,149.742,132.513,149.824,132.592Z" transform="translate(-93.334 -82.555)" fill="#c29820"/>
    <path id="Path_566" data-name="Path 566" d="M150.767,124.372h-.083c-.079.034-.12.071-.075.207.041.03-.079.135.124.131.376,0,.278-.278.353-.451v-.068C150.883,124.132,150.887,124.338,150.767,124.372Z" transform="translate(-94.029 -77.536)" fill="#c29820"/>
    <path id="Path_567" data-name="Path 567" d="M168.518,60.23l-.038.038V60.4C168.521,60.369,168.6,60.3,168.518,60.23Z" transform="translate(-105.199 -37.606)" fill="#c29820"/>
    <path id="Path_568" data-name="Path 568" d="M180.866,84.958c-.124-.03-.293-.376-.406-.026A.785.785,0,0,0,180.866,84.958Z" transform="translate(-112.679 -52.933)" fill="#c29820"/>
    <path id="Path_569" data-name="Path 569" d="M132.77,106.078a.233.233,0,0,0,.244.06C132.932,106.029,132.89,106.029,132.77,106.078Z" transform="translate(-82.902 -66.213)" fill="#c29820"/>
    <path id="Path_570" data-name="Path 570" d="M177.671,85.3c.165.165,0,.27-.03.376-.165-.03.034-.173-.086-.169s-.2.109-.278.177c0,.034,0,.034-.038.068-.357.376-.71.868-1.1,1.285,0,.034-.034.135,0,.135s.083-.034.079-.068c.079-.071.162-.109.2-.21.233-.346.593-.59.826-.935.12.03.244.162.323.026a.934.934,0,0,0,.2-.177c.237-.278.233-.312,0-.575V85.19C177.668,85.194,177.577,85.265,177.671,85.3Z" transform="translate(-109.969 -53.191)" fill="#c29820"/>
    <path id="Path_571" data-name="Path 571" d="M177.546,89.542c0,.034.083.03.124.03a.327.327,0,0,0,.071-.342C177.621,89.3,177.5,89.407,177.546,89.542Z" transform="translate(-110.854 -55.713)" fill="#c29820"/>
    <path id="Path_572" data-name="Path 572" d="M161.574,84.37c-.079.1-.158.173-.154.24a.214.214,0,0,0,.154-.24Z" transform="translate(-100.79 -52.679)" fill="#c29820"/>
    <path id="Path_573" data-name="Path 573" d="M169.218,57.516a1.2,1.2,0,0,0,.2-.376h-.083a1.88,1.88,0,0,1-.15.376Z" transform="translate(-105.636 -35.677)" fill="#c29820"/>
    <path id="Path_574" data-name="Path 574" d="M168.77,59.05c0,.139.045.169,0,.274C168.894,59.253,168.894,59.219,168.77,59.05Z" transform="translate(-105.38 -36.87)" fill="#c29820"/>
    <path id="Path_575" data-name="Path 575" d="M108.954,90.006c-.158.207-.439.214-.639.319,0,0,0,.038-.079.038l-.323.109c-.12-.064.079-.1,0-.135-.278.075-.376.109-.477.248a.405.405,0,0,1-.376.214.567.567,0,0,0-.481.045,6.96,6.96,0,0,1-2.659.3,4.673,4.673,0,0,1-1.059-.316,2.145,2.145,0,0,0-.567-.158c-.083-.03-.124-.03-.165-.1a12.394,12.394,0,0,0-1.149-.751c-.041,0-.041-.03-.041-.03-.086-.2-.331-.3-.5-.466-.169-.267-.5-.428-.665-.732a9.451,9.451,0,0,1-.928-1.743v-.038a.18.18,0,0,0-.2-.06c-.041.034-.041.068,0,.135s.165.1.128.2c-.113.376.218.609.346.909.124.2.21.376.338.6a.376.376,0,0,1-.376-.162c-.207-.2-.177-.5-.421-.7-.041-.068-.086-.135,0-.2,0-.034,0-.068-.083-.135a.421.421,0,0,1-.376-.466.526.526,0,0,0-.03-.244,2.366,2.366,0,0,1-.218-.751.293.293,0,0,0-.169-.267c-.12.034.045.135-.158.139a.282.282,0,0,1,0-.308,1.036,1.036,0,0,1-.169-.376c-.041-.034-.045-.1.038-.068s.12,0,.12-.038a1.127,1.127,0,0,1-.09-.338c-.079,0,0,.068-.075.105-.128-.169-.128-.27.03-.443-.124-.068-.244-.03-.248-.165.2.03.282-.041.2-.105-.2-.131,0-.308-.131-.473-.083-.034-.041-.068-.045-.1.24-.109-.045-.237-.045-.3-.045-.135-.2.038-.282.041a.282.282,0,0,1,.113-.274c.244-.075.192-.481-.053-.612-.038.068.124.2-.075.24a.532.532,0,0,1,.376-.654c.041,0,.041-.038.038-.105a.075.075,0,0,0-.083-.064c-.24,0-.327-.165-.447-.2.376,0,.319-.177.316-.312a.342.342,0,0,1,.071-.376c-.083-.1-.049-.338-.331-.376a.068.068,0,0,1,.038-.1c.319-.143.316-.312,0-.477a.1.1,0,0,0-.041-.1c.12.03.041.064.041.1.162,0,.2-.071.2-.173a3.892,3.892,0,0,1,.056-.954c.038-.2-.131-.541.064-.781.079-.038,0-.068,0-.068-.162-.064-.083-.135-.045-.27a.609.609,0,0,0,.2-.244c-.083-.169.154-.376-.131-.507,0,0,0-.068.038-.068.24-.075.154-.274.071-.409.12-.038.162-.071.282-.041s.12-.038.12-.105-.083-.03-.124-.03-.162,0-.162-.1v-.342c-.041-.064-.041-.169-.124-.233-.041,0-.041-.034,0-.068a.048.048,0,0,1,.083.03c0,.03.045.135.207.131a.4.4,0,0,1,.113-.274c.079-.135-.045-.169-.045-.27s0-.135-.086-.135-.161,0-.158.038c-.041.105.041.1.124.135a.109.109,0,0,1,.041.1.327.327,0,0,1-.162.071.083.083,0,0,1-.079-.068c0-.135-.049-.27.03-.376,0-.034-.041-.1.079-.071s.282-.041.237-.21a.628.628,0,0,1,.162-.105c.079,0,.12,0,.079-.071-.128-.233.267-.65.548-.624.165.03.162-.139.319-.177.041,0,0-.068,0-.068-.12,0-.161.071-.244,0,.274-.376.631-.691.905-1.04.162-.105.237-.24.2-.342-.2.071-.278.278-.518.248-.12.173-.319.177-.522.218a.454.454,0,0,1,.522-.218c-.083-.1,0-.169.034-.2a1.716,1.716,0,0,1,.316-.417,6.169,6.169,0,0,0,.826-.9s.162,0,.12-.038c-.165-.131-.162,0-.2,0-.2.109-.274.349-.552.522-.041.038-.12.071-.161,0s-.207-.094,0-.2l.038-.034a2.171,2.171,0,0,1,.218-1.025c-.116.173-.481.146-.515.454,0,.1,0,.237-.237.143-.083-.034-.12.038-.161.071.041.1,0,.169.124.165.2,0,.207.1.128.169a.751.751,0,0,1-.116.308l-.109.511a.943.943,0,0,1-.59.593c0-.034-.124-.1-.045-.169.2-.21.068-.545.263-.856.038-.034.233-.346-.09-.338.038-.1.24-.075.24-.177s-.124.038-.162,0c.27-.376.27-.376.225-.582-.075.173-.237.143-.274.312-.041-.1.026-.612.146-.65s.282-.139.237-.24c-.083-.034-.041-.068-.045-.135-.116.071-.075.2-.192.308a.867.867,0,0,1,.071-.376c.079,0,.083.034.12.068.285.094.2-.109.24-.21.038-.034.116-.105.079-.105-.165-.131-.045-.169.034-.237.124.131.12,0,.158-.071.079-.139-.086-.27.154-.312.041,0,0-.034,0-.068-.207-.165-.128-.3.071-.376v-.034c.116-.173.113-.409.436-.417.038,0,.075-.173-.045-.2s-.045-.1-.045-.169c.038-.135.116-.207.071-.308s.041-.068.12-.071.083.034.083.068c0,.1-.116.173,0,.3a2.553,2.553,0,0,1,.192-.413c.041-.068.038-.1-.041-.131-.285-.131-.165-.169.034-.173a.825.825,0,0,0,.2-.071c0,.1-.038.2-.034.3-.038.207-.233.376-.229.62s-.233.376-.267.616a2.126,2.126,0,0,0-.105.751l.041.034c-.041,0-.041-.034-.041-.034a.459.459,0,0,1-.2.105c-.041-.034,0-.2-.124-.165a.684.684,0,0,0-.158.274c0,.1.124.064.165.03s.079.034.083.068c-.079.2.165.3,0,.507l.083.1c.041,0,.12-.038.12-.071s.079-.1.038-.135c-.086-.237.113-.346.267-.552,0-.034.12-.071.079-.1-.244-.1,0-.24,0-.342s.038-.237-.128-.3c-.041,0-.041-.068-.041-.068a.252.252,0,0,1,.162-.038c.162.064.2.03.158-.105a.143.143,0,0,1,.075-.207.68.68,0,0,0,.27-.518.443.443,0,0,1,.116-.308c.316-.278.346-.721.661-1,.079-.071.116-.173-.045-.237s-.207-.131-.086-.2a1.465,1.465,0,0,0,.312-.586c.154-.342.3-.721.5-1.063.03-.342.428-.624.3-.992,0-.034.038-.038.079-.071.154-.308.428-.657.541-.965.079-.169,0-.27.274-.346a.345.345,0,0,0,.116-.207.687.687,0,0,1,.312-.518c.316-.312.267-.717.5-1.063a5.725,5.725,0,0,1,.624-1.033l1.1-1.352A21.726,21.726,0,0,1,107.85,55.7c.2-.173.315-.376.473-.485.357-.316.552-.627.868-.905.376-.417.71-.751,1.127-1.149.627-.691,1.465-1.288,2.175-1.953.158-.139.376.06.563-.045a1.348,1.348,0,0,0,.676-.492c.116-.173.316-.248.436-.417,0-.105.436-.319.556-.285.041,0,.041,0,.083.03a2.167,2.167,0,0,1,.3.5c.169.376.053.507-.023.815a5.258,5.258,0,0,1-.526,1.747c-.349.62-.695,1.273-1.086,1.878-.079.038-.116.139-.158.244a11.125,11.125,0,0,1-.781,1.071c-.2.24-.27.515-.466.725s-.436.376-.432.654c.045.068-.034.173-.116.173-.158.105-.2.177-.154.278.079,0,.158-.105.278-.143,0,.068-.079.1,0,.2.079-.24.4-.417.376-.62-.041,0-.079.068-.12.034a.165.165,0,0,1,.12-.034c.079-.038.12-.139.158-.21.2-.342.432-.586.624-.9.357-.413.627-.864.98-1.243.357-.316.376-.725.665-1.071a5.8,5.8,0,0,0,.507-.751,6.386,6.386,0,0,0,.642-1.852,1.127,1.127,0,0,1,.03-.376c.083-.038-.049-.443.143-.856.038-.068,0-.1-.045-.2a2.088,2.088,0,0,1-.173-.47.522.522,0,0,0-.293-.47c-.165-.165-.447-.158-.612-.222a6.045,6.045,0,0,0-1.54-.169c-.12,0-.158.105-.2.139-.124.038-.24.109-.323.041a.376.376,0,0,0-.327-.026,3.5,3.5,0,0,0-.635.458c-.394.316-.793.563-1.127.841s-.751.458-1.033.7c-.593.593-1.273.751-1.705,1.4-.154.274-.432.417-.631.627a1.086,1.086,0,0,1-.312.481c-.432.488-.785.973-1.217,1.525l-.594.962a6.153,6.153,0,0,0-1.172,1.762c-.116.207-.312.481-.225.751a4.128,4.128,0,0,1-.376.552c-.038.071-.038.105.086.2.041.034-.038.135-.075.207,0,0-.079.034-.083,0-.124-.131-.162,0-.2,0-.12.068-.158.274-.237.346s0,.1.083.1c0-.034.038-.1.079-.1l-.079.1c-.038.071-.079.071-.158.139-.12,0-.24.075-.154.21a.366.366,0,0,1-.034.406c-.233.312-.428.624-.661,1a1.649,1.649,0,0,1-.353.485c0-.068.079-.139.113-.308-.274.244-.27.447-.507.751.2-.109.2-.21.319-.248a4.816,4.816,0,0,1-.346.751c-.376.687-.612,1.439-.962,2.164a19.764,19.764,0,0,0-.92,2.058c-.192.481-.376,1-.571,1.544-.03.406-.342.789-.214,1.194-.079.034-.12.071-.116.105a3.642,3.642,0,0,1-.267.684,21,21,0,0,0-.7,2.836c-.038.105-.038.173-.116.207-.282.109-.394.349-.635.526-.871.751-1.822,1.469-2.693,2.2a22.134,22.134,0,0,1-1.878,1.469,3.118,3.118,0,0,1-.635.376c-.376.21-.676.424-1.037.6a12.208,12.208,0,0,1-1.724.586,1.063,1.063,0,0,1-1.3-.481,6.879,6.879,0,0,1-.143-.913,5.025,5.025,0,0,1-.116-1.563c-.056-.642.334-1.194.278-1.807.237-.312.15-.616.3-.89.116-.173.316-.278.376-.451a3.106,3.106,0,0,1,.706-.834c.116-.169.316-.278.312-.515-.124-.03-.079.173-.282.075a.173.173,0,0,1,.079-.139c-.041-.034-.083-.034-.162,0s-.083,0-.083-.068c0-.169.113-.274.316-.21.041,0,.083.034.124.03.237-.139.162.068.165.169.079-.071.158-.105.2-.21.041-.034.083-.068.041-.068-.327-.06-.169-.267-.21-.376,0-.034,0-.139.116-.105s.162,0,.165.131c0,.068.045.135.124.1a2.58,2.58,0,0,0,.669-.729c-.12.038-.116.105-.2.143s-.158.139-.237.105c-.207-.064.038-.1,0-.169a.135.135,0,0,1-.041-.068c-.079-.03-.083-.1,0-.135a.687.687,0,0,0,.312-.417c0-.034.079-.1.116-.1l.041.03c-.075.105-.034.207.09.27a.285.285,0,0,0,.278-.21c.075-.1-.045-.135-.165-.131a.248.248,0,0,1-.124-.064c.079-.173.316-.282.477-.376s.2-.274.353-.349c0-.034-.083-.064-.12-.064a.3.3,0,0,1-.244,0c-.12,0-.075.135-.158.173-.477.316-.669.751-1.025,1.044-.432.451-.661,1-1.262,1.352-.038.071-.034.207-.2.21a2.756,2.756,0,0,1,.15-.413c.038-.169-.045-.237,0-.376a1.972,1.972,0,0,0,.462-.962,6.472,6.472,0,0,1,.225-.721,2.3,2.3,0,0,0,.2-.432c0-.139-.049-.342.192-.447.041-.038.038-.071.038-.173s-.045-.135,0-.2c.278-.21.274-.481.349-.687.034-.308.432-.485.346-.823.394-.316.3-.789.62-1.127a4.641,4.641,0,0,1,.263-.684,7.42,7.42,0,0,0,.567-1.116c.15-.413,1.029-.875,1.221-1.288.154-.342.376-.687.541-1.067a4.613,4.613,0,0,1,.582-1c.2-.342,1.014-1.585,1.168-1.878a5.16,5.16,0,0,1,.376-.624,1.927,1.927,0,0,0,.507-.725l1.292-1.829c.229-.552.661-.969.89-1.551l.815-1.495c.2-.21.267-.654.432-.556s.319-.177.6-.353a4.541,4.541,0,0,0,.665-.83c-.079-.034-.116.105-.2.071l2.288-2.363a.533.533,0,0,1,.316-.316c.56-.282.376-.654.95-.871a3.328,3.328,0,0,1,.725-.15.353.353,0,0,1,.327.263c.045.1,0,.27.049.338a1.5,1.5,0,0,1-.09,1.258,12.7,12.7,0,0,1-.751,2.058,9.793,9.793,0,0,1-.774,1.446,1.555,1.555,0,0,1-.376.751,16.438,16.438,0,0,1-1.01,1.792,15.2,15.2,0,0,1-1.4,2.07,2.847,2.847,0,0,1-.586.9,10.891,10.891,0,0,0-.935,1.382c-.511.624-.939,1.281-1.454,1.837-.116.1-.071.342-.274.413-.237.139-.353.417-.548.691.083.034.2-.173.323-.075a.248.248,0,0,1-.319.143c-.124,0-.162.038-.12.105.21.267-.154.24-.233.312,0,.068.165.165,0,.3a.421.421,0,0,1-.406-.124c.169.233-.071.342-.15.511v.034c.079,0,.12,0,.079.068s-.079-.03-.079-.068c-.244-.06-.282.143-.4.214a.98.98,0,0,0-.462.86c0,.1,0,.135-.12.173-.041-.068.038-.135-.045-.237a.691.691,0,0,0-.316.349,2.667,2.667,0,0,0-.578.695c.041.034.083.068.083.1,0,.1-.034.169-.154.173a.188.188,0,0,0-.12.173.511.511,0,0,0-.2.244c.041.03.041.064,0,.068-.162,0-.158.071-.237.105.041.034.12.068.045.2-.041,0-.12.038-.162,0-.086-.131.038-.135.116-.207-.207-.06-.2,0-.244.041a5.135,5.135,0,0,1-.751.834v.135l-.12.105c-.233.346-.672.593-.864,1-.079.139-.034.207.128.2.376,0,.376-.214.436-.376-.041-.034-.124-.034-.045-.1s.2-.109.24-.041c.124.1.165.03.161-.038a.326.326,0,0,1,.158-.24c.158-.139.154-.342.312-.485.079-.068.158-.139.071-.274,0-.068.079-.1.12-.135a3.7,3.7,0,0,0,.751-.6,6.128,6.128,0,0,1,.665-.83l.515-.575c.316-.451.83-.834,1.183-1.352.233-.346.714-.492.751-.935h.083a1.439,1.439,0,0,0,.4-.214c.12-.034.24-.038.116-.135s-.041-.135.12-.105.162,0,.158-.071,0-.105.038-.139a3.826,3.826,0,0,0,.631-.661c.274-.376.631-.751.943-1.176.116-.24.436-.349.552-.59.192-.447.627-.864.856-1.277a15.1,15.1,0,0,1,1.018-1.454,2.6,2.6,0,0,0,.661-1.127,2.2,2.2,0,0,1,.158-.177,4.132,4.132,0,0,0,.582-.965l1.161-2.134c.079-.2.353-.447,0-.68-.041,0,.079-.034.079-.068,0,.068.083.064.124.03s.038-.034.079-.068c0,.135.041.1.041.03l.079-.1c0-.034,0-.034-.041-.034h-.041v-.068a9.527,9.527,0,0,1,.409-1.5c.233-.485.342-.928.575-1.442.038-.1-.09-.3.192-.346,0-.135.116-.274-.086-.3-.083,0-.124-.03-.086-.131a1.532,1.532,0,0,0-.18-.811c-.124-.169-.207-.3-.492-.3a.984.984,0,0,1-.4-.056c-.285-.026-.9-.376-1.179-.346-.563.146-1.089.162-1.653.274a1.24,1.24,0,0,0-.477.252,10.977,10.977,0,0,0-2.088,2.359c-3.166,3.749-3.29,3.8-3.475,4.5-.15.477-.751.9-1.1,1.348a4.837,4.837,0,0,1-.6.954l-.977,1.382c-.233.447-.582,1-.894,1.5a13.9,13.9,0,0,0-1.089,1.792,5.829,5.829,0,0,0-.616,1.236,2.006,2.006,0,0,1-.18.473c-.075.207-.357.349-.229.515,0,.068-.079.105-.12.105-.161.038-.116.173-.2.278v.034c-.079.068-.2.173-.034.308,0,.034,0,.034-.038.1a1.5,1.5,0,0,0-.353.376,1.326,1.326,0,0,0-.267.65c-.113.376-.308.721-.421,1.1-.244-.094-.24.075-.158.105.045.237-.278.316-.27.518.041.068.083.169-.038.237a.68.68,0,0,0-.233.376,7.625,7.625,0,0,0-.18.856c0,.1-.2.105-.2.24a.714.714,0,0,1-.229.616.184.184,0,0,0-.116.173,2.467,2.467,0,0,1-.192.481c0,.135-.075.24-.071.342a6.232,6.232,0,0,1-.225.721,1.878,1.878,0,0,0-.259,1.059,8.641,8.641,0,0,0-.376,1.2l-.451,1.469c-.075.274-.068.616-.424.826-.439.248-.068.578-.424.86a.981.981,0,0,0-.278.278c.285,0,.4-.248.6-.285-.038.1-.12.105-.158.139-.12.105-.319.177-.233.376.041.068-.038.139-.162.105a1.127,1.127,0,0,0-.2-.03c.041-.068.158-.139.116-.207-.124-.1-.2.041-.24.075-.8.53-1.469,1.127-2.306,1.619a10.016,10.016,0,0,0-.954.631c-.4.214-.883.293-1.127.672a.248.248,0,0,1-.158.038,9.532,9.532,0,0,0-1.044.327,4.507,4.507,0,0,1-1.086.229.785.785,0,0,1-.909-.826,2.9,2.9,0,0,1,.308-.687,2.952,2.952,0,0,0,.184-.751,3.439,3.439,0,0,0,.109-.548c0-.1.2-.308.27-.447a4.782,4.782,0,0,1,.575-1.337c.237-.312.188-.684.462-1,.12-.034.116-.173.116-.24s-.045-.1.034-.169a10.929,10.929,0,0,1,.823-1.127l.548-.826a9.672,9.672,0,0,1,.778-1.209,11.7,11.7,0,0,0,.706-.965c.274-.316.593-.593.826-.871.237-.346.552-.59.751-.9.038-.1.075-.2.158-.24a11.453,11.453,0,0,1,.984-.973,1.743,1.743,0,0,0,.59-1.007.248.248,0,0,0-.041-.169c-.331-.233-.537-.466-.868-.695-.12-.064-.409-.263-.6-.086a.353.353,0,0,1-.376,0,3.887,3.887,0,0,0-.86-.421c-.376-.094-.77-.12-1.052-.18-.376-.06-.732-.222-1.1-.282a4.622,4.622,0,0,0-2.254-.184,7.664,7.664,0,0,0-1.927.455,3.3,3.3,0,0,0-.879.462c-.2.105-.274.346-.376.376-.323.109-.477.349-.717.492a17.57,17.57,0,0,0-2.092,2.021c-.237.278-.432.586-.669.83a18.109,18.109,0,0,0-1.645,2.179c-.428.691-.815,1.412-1.243,2.1a1.277,1.277,0,0,0-.15.515,2.629,2.629,0,0,0-.349.654c-.267.616-.376,1.2-.6,1.848a1.845,1.845,0,0,0-.15.447,3.576,3.576,0,0,1-.334,1.262,4.41,4.41,0,0,0-.162,1.739,3.651,3.651,0,0,0,.135.676,1.73,1.73,0,0,0,1.149.751,2.558,2.558,0,0,0,1.01-.06,3.622,3.622,0,0,0,.639-.319c.158-.071.4-.113.477-.319a1.052,1.052,0,0,1,.237-.173,8.639,8.639,0,0,0,.913-.7,2.851,2.851,0,0,1,.751-.751c.079-.068.2-.105.24-.173.154-.312.473-.488.627-.729.079-.173.4-.316.515-.522a2.674,2.674,0,0,1,.71-.751c.2-.173.229-.548.631-.657.038-.038.038-.105.075-.139a3.518,3.518,0,0,0,.376-.417,9.9,9.9,0,0,0,1.221-1.318c.233-.278.511-.556.785-.9.086.3-.15.511-.225.65-.376.417-.424.86-.751,1.307H75.9c.124.233-.071.443-.105.646a2.19,2.19,0,0,1-.308.751c-.113.376-.222.789-.3,1.164-.068.443-.222.853-.252,1.262a.8.8,0,0,0,.056.676c.165.2.334.47.5.635.045.169.248.233.376.331a4.207,4.207,0,0,0,1.5.409,1.367,1.367,0,0,0,.729.083c.481-.18,1.048-.263,1.608-.443.6-.289,1.24-.575,1.878-.928a7.14,7.14,0,0,1,.672-.492c.439-.214.717-.458,1.078-.672a6.457,6.457,0,0,0,.992-.751l.871-.665.15-.582a3.993,3.993,0,0,1,.143.947.413.413,0,0,0,0,.376,6.645,6.645,0,0,0,.6,1.683,3.2,3.2,0,0,0,.624.732,1.615,1.615,0,0,0,1.183.518,5.206,5.206,0,0,0,1.255.038,3.148,3.148,0,0,0,.962-.327,2.915,2.915,0,0,0,1.36-.646c.038-.034.116-.139.158-.139a1.931,1.931,0,0,0,.676-.357c.2-.139.319-.312.436-.376a1.664,1.664,0,0,0,.56-.376c.552-.488,1.146-.977,1.7-1.431a8.873,8.873,0,0,0,1.228-1.048c.2-.177.477-.353.714-.53a.4.4,0,0,1,0,.308c-.071.376-.143.785-.177,1.127a1.529,1.529,0,0,0-.1.92,1.724,1.724,0,0,0-.094,1.127c0-.034,0-.034.038-.034s-.041,0-.038.034c0,.173-.237.312.049.477a.034.034,0,0,1-.038.034c-.2.038-.116.207-.113.342a5.427,5.427,0,0,0-.1,1.127c0,.1.207.064.165.131-.24.109-.113.312-.109.447l.056.71c.038-.034,0-.068.162-.071-.12.105.128.3-.154.376-.041,0-.038.068,0,.1a.12.12,0,0,1,.041.1l.06.849c-.038.2.252.376.214.537a1.944,1.944,0,0,0,.146,1.052,2.449,2.449,0,0,0,.094.575.977.977,0,0,1,.173.47c0,.135.045.2.049.338a5.321,5.321,0,0,1,.751,1.548v.068c.2.1.207.334.376.5a8.042,8.042,0,0,0,1.082,1.3,4.8,4.8,0,0,0,.661.563c.124.064.124.2.248.233a2.081,2.081,0,0,1,.856.421c.124.064.165.131.289.2a12.878,12.878,0,0,1,1.262.447,8.82,8.82,0,0,0,2.351.421,7.344,7.344,0,0,0,2.171-.492A6.457,6.457,0,0,0,109,90.28a1.214,1.214,0,0,0,.2-.308C109,90.209,108.954,90.07,108.954,90.006ZM99.3,71.1l.041.034c.041.068-.038.1-.116.207C99.221,71.206,99.218,71.138,99.3,71.1Zm-.751,1.991c-.041-.068-.045-.135-.086-.2C98.737,72.915,98.737,72.949,98.549,73.092Zm5.112-14.5a1.562,1.562,0,0,1-.27.447c-.1-.15-.056-.237.259-.447Zm-.537,2.9.041.034c-.038.071-.079.071-.162.038-.011-.068.053-.068.109-.071Zm-.274.248a.079.079,0,0,1,.12.064c0,.068-.038.068-.079.1s-.162,0-.162-.064a.116.116,0,0,1,.109-.1Zm-1.687,4.015a.334.334,0,0,0-.154.274h-.12c-.045-.2.113-.274.15-.413.041-.068.079-.068.083,0s.056.068.03.139Zm.612-1.476c-.041,0-.041-.034-.041-.034-.083-.034,0-.034.041-.068a.03.03,0,0,1,.038.03c-.008.034-.008.068-.049.071Zm.515-2.19c.045.135.252.3.09.376s.09.406-.316.316a1.014,1.014,0,0,0,.214-.691Zm-.218.958c0,.034,0,.068-.079.071a.158.158,0,0,1-.083-.034c0-.034,0-.068.038-.068a.53.53,0,0,1,.113.03Zm-.023-.815-.158.105c.038-.135.038-.135.146-.105Zm-.3,1.127c.041-.105.079-.105.162-.143a.147.147,0,0,1,.2.1c.041.1-.038.105-.116.139l-.079.105v-.034l-.244.038a.338.338,0,0,1,.064-.2Zm-.229.447v.376c-.169-.165-.131-.27-.011-.372Zm.053.541c.083.034.162.03.083.135,0,.068-.079.1-.158.105-.162-.03-.282.041-.278.177a.316.316,0,0,1,.331-.413Zm-.89-.083a.229.229,0,0,1,.041.1.113.113,0,0,1-.038.071.049.049,0,0,1-.083-.034c.03,0,.03-.03.068-.135Zm.225.98a.6.6,0,0,1,.113-.274c0-.068.038-.169.116-.173.083.068.248.131.289.233s-.038.135-.158.139c-.038.068,0-.068-.041-.1h-.053a3.723,3.723,0,0,0-.5,1.067c-.041.034-.079.105,0,.135s.116-.071.158-.105c-.038.2-.038.2-.237.244-.041.034-.079.068-.079.1-.079.038-.079.139-.24.143a2.49,2.49,0,0,1,.154-.376.289.289,0,0,0,.116-.207c-.045-.3.252-.548.349-.823Zm-.729-.049c.038-.071.079-.105.075-.173l.041.034a.285.285,0,0,1-.071.308c-.094.038-.135-.026-.056-.165Zm-.751,2.836c-.038,0-.079,0-.079-.03-.165-.1-.045-.1,0-.135.034.068.158.1.075.169Zm.376-1.878c.041-.038.041,0,.041.03s0,.068-.079.071c0,.034-.041,0-.041-.034a.079.079,0,0,1,.06-.06Zm-.15.376c.12-.038.12.1.2.165-.12,0-.282.041-.323-.06a.12.12,0,0,1,.1-.1Zm-.255,1.3c-.041-.1,0-.2.075-.342-.015.18-.015.282-.094.349Zm.026-.714a.477.477,0,0,1-.154.376c-.1-.124.026-.263.135-.368Zm-.218,1.059a.229.229,0,0,1-.038.24.255.255,0,0,1,.019-.233Zm-.116.308c.083.034.083.1.045.135a.916.916,0,0,1-.154.342v-.376c-.03-.056.011-.09.09-.094Zm-.353.451c.045.1.045.169-.034.237-.1-.023-.064-.135.015-.229Zm-.4,1.946c.128.2-.034.274-.071.409-.06-.162.056-.2.053-.4Zm-.218.958a.56.56,0,0,1-.113.477.545.545,0,0,1,.094-.47Zm-.188.684c.045.1.045.135-.034.169-.064-.06-.064-.094.015-.162Zm-.113.308c.079,0,.083.1.083.135s-.041,0-.12.034c-.019-.06-.064-.162.011-.162ZM97.306,61.9a.049.049,0,0,1-.083-.03c-.038,0-.041-.034-.041-.068a.135.135,0,0,1,.083.03c.041,0,.079,0,.083.034Zm3.121-3.632c-.083,0-.083-.034-.083-.068s-.041-.068.038-.068.041,0,.083.068A.116.116,0,0,1,100.427,58.266Zm3.929-6.412c0,.034,0,.034-.038.034s-.083,0-.083-.068l.038-.034c.068,0,.068,0,.068.068ZM87.949,72.829a.522.522,0,0,0,.154-.24c0-.068.038-.173.116-.139s.124,0,.162-.105c0-.034.12-.071.12-.038a.109.109,0,0,1,.041.1c0,.068,0,.135-.038.135-.282,0-.316.214-.353.349-.041,0-.079.071-.2.038C87.908,72.9,87.949,72.862,87.949,72.829Zm-4.507-5.74c.2-.139.274-.376.473-.552a3.47,3.47,0,0,1,.511-.59c0,.034,0,.034.041.03l-.98,1.247a5.458,5.458,0,0,0-.868.973l-.669.729c-.376.417-.751.935-1.1,1.318-.079.1-.278.177-.394.376,0,.034-.041.034-.079.034s-.041-.034-.045-.064c0-.139.079-.207.075-.24.477-.421.83-.838,1.266-1.288a8.886,8.886,0,0,0,.943-1.127,2.96,2.96,0,0,1,.834-.845ZM73.108,76.1c0-.1.038-.139.079-.139s.041.034.041.034a.12.12,0,0,1-.113.1Zm.83-.868a.376.376,0,0,1-.116.207c-.124-.034-.124-.068-.124-.169.079-.071.116-.139.2-.139s.09.026.053.1Zm.376-.248c-.079.038-.079.139-.2.071s0-.068.034-.169c.083-.038.079-.071.079-.105-.124-.165.075-.2.2-.274-.086.131.038.3-.12.473Zm1.292-1.694h-.038c-.041-.034-.045-.068.038-.105h.03c.041.064.041.064-.041.1Zm.556-.522a.131.131,0,0,1-.045-.068c-.038,0,0-.034.041-.038s.041,0,.083.034-.053.064-.09.068Zm.3-.793a20.563,20.563,0,0,0-1.773,1.878c-.556.556-1.067,1.127-1.578,1.7-.515.488-.984,1.044-1.5,1.533-.4.349-.83.732-1.307,1.082-.376.282-.717.458-1.037.706a4.271,4.271,0,0,1-.917.428c-.083,0-.162.038-.162-.03-.049-.237-.214-.376-.056-.612a.774.774,0,0,0,.143-.751c0-.034.041-.068.079-.1a4.529,4.529,0,0,0,.567-1.747c0-.034-.083-.068,0-.068.24-.177.229-.515.3-.789.116-.207.154-.413.353-.518l.038-.068a15.486,15.486,0,0,1,1-1.995,2.723,2.723,0,0,1,.548-.83c.116-.139.192-.342.308-.515a5.867,5.867,0,0,1,1.1-1.454,4.909,4.909,0,0,0,1.059-1.352c.075-.169.274-.244.473-.376a14.314,14.314,0,0,1,1.739-1.6,4.928,4.928,0,0,1,.875-.631A7.243,7.243,0,0,0,77.6,65.4a2,2,0,0,1,.883-.255c.4-.079.751-.086,1.127-.131a2.629,2.629,0,0,1,1.255,0c.376.2.684-.053.969.079a.6.6,0,0,1,.244.026c.285.131.285.165.131.406a17.174,17.174,0,0,1-1.454,1.732,12.253,12.253,0,0,0-1.3,1.6,16.587,16.587,0,0,1-1.341,1.39c-.316.346-.714.661-1.029,1.01a6.924,6.924,0,0,1-.639.721Zm5.123,6.577c-.038.1-.038.2-.278.21.038-.139.2-.177.278-.21-.045-.135,0-.207.154-.21a.233.233,0,0,1-.165.207Zm1.067-.943a.857.857,0,0,1,.376-.214c-.045-.2.116-.139.2-.173a.3.3,0,0,1-.2.173c-.064.135-.225.105-.387.21Zm1.127-.436c-.158.173-.376.248-.477.421,0,.034-.12,0-.2-.03s0-.1.079-.105c.2-.071.319-.244.518-.349,0-.034,0-.034.038-.038s.041,0,.041.034.026.064-.011.064Zm.714-.458a.67.67,0,0,0-.158.105c-.158.139-.158.139-.244-.026-.041-.068-.2.038-.244-.064a.654.654,0,0,1,.4-.248c0,.135.086.169.165.131s.12-.034.12,0a.118.118,0,0,1-.053.1Zm.473-.488c-.045-.2.116-.24.278-.312a.4.4,0,0,1-.293.308Zm.222-.988c.038-.038.075-.173.116-.105a.177.177,0,0,1,.086.135Zm.334.567c-.079.038-.24.041-.12-.1,0-.034.038-.034,0-.068v-.034c0-.034.038-.034.038-.068.064.128.27.192.068.252Zm6.566,2.5c0-.135.075-.139.158-.139-.086.03-.086.135-.173.135Zm4.883,3.046a.078.078,0,0,1-.079.068.034.034,0,0,1-.041-.03c0-.068.041-.071.041-.071.056,0,.056,0,.056.03Zm0-6.761c-.278.143-.432.485-.714.593-.376.177-.473.485-.793.665-.158.139-.4.143-.473.417h-.12c-.165-.165-.285,0-.443.045a6.887,6.887,0,0,1,.59-.56,5.259,5.259,0,0,0,.875-.665c.376-.282.635-.526,1.029-.875.041-.034.12-.068.162-.038s.041.068.045.135c-.019.135-.056.24-.177.278Zm0,4.35a.075.075,0,0,1,.083.064.083.083,0,0,1-.079.071c-.041-.034-.124-.03-.124-.068s.045-.038.083-.071Zm-.237,1.976c0-.068-.045-.2.075-.207s.162,0,.165.1-.079.105-.158.139-.15,0-.12-.034Zm1.127,5.375c.124.1.124.2.165.267-.109-.068-.233-.1-.192-.27ZM99.541,88.8c-.041.034-.041.068-.124.038.041-.034.083,0,.124-.038s0-.068.079-.068.079,0,.083.064a.375.375,0,0,1,.083.169c-.188-.026-.192-.169-.27-.169Z" transform="translate(-41.458 -28.843)" fill="#c29820"/>
    <path id="Path_576" data-name="Path 576" d="M204.09,115.063c0-.034.12-.105.12-.173s-.124-.1-.124-.064c-.083,0-.244,0-.158.139C203.94,115.033,204.012,115.067,204.09,115.063Z" transform="translate(-127.317 -71.687)" fill="#c29820"/>
    <path id="Path_577" data-name="Path 577" d="M206,113.048a1.169,1.169,0,0,0,.357-.278C206.06,112.676,206.15,112.977,206,113.048Z" transform="translate(-128.625 -70.4)" fill="#c29820"/>
    <path id="Path_578" data-name="Path 578" d="M196.154,98.695c.079-.105.116-.24.237-.244.2-.038.2-.143.237-.244-.2,0-.6.376-.676.56-.038.1-.116.105-.2.038-.161,0-.041-.034-.083-.1a.331.331,0,0,0,.075-.24c.038-.105.034-.173.158-.207.278-.109.316-.316.47-.488-.274.278-.593.454-.871.7a8.175,8.175,0,0,0-1.071.841,8.992,8.992,0,0,0-1.033.774l-3.606,2.971c0,.068-.079.071-.079.071a.316.316,0,0,1-.165-.169c.12-.068.12-.1.158-.207s.2-.274.274-.413c.192-.312.146-.616.342-.789a5.21,5.21,0,0,0,.575-.909c.079-.1.12-.139,0-.27a1.322,1.322,0,0,1-.436.451c-.319.143-.319.21-.27.485-.124-.034-.169-.27-.053-.477.12-.038.24-.071.158-.207,0-.068-.162,0-.24.075a.034.034,0,0,0-.041-.034.451.451,0,0,1,.116-.139c.323.026.376-.146.4-.282,0-.237.237-.278.4-.316.038-.1.158-.105.162.03,0,0-.12.038.041.034,0,.1.079-.038.079-.071.2-.173.192-.409.469-.657a1.912,1.912,0,0,0,.346-.687,1.714,1.714,0,0,0,.394-.518c.034-.135.274-.244.03-.409a.451.451,0,0,0,.439-.18,3.166,3.166,0,0,1,.466-.86,2.694,2.694,0,0,0,.661-1.1c.116-.071.116-.071.116-.139.2-.038.278-.244.394-.376a4.819,4.819,0,0,1,1.217-1.559,8.1,8.1,0,0,0,.943-1.127c.116-.207.376-.316.511-.59a2.629,2.629,0,0,0,.139-1.022c0-.034-.124-.068-.165-.068-.447-.192-.853-.252-1.1-.582a.342.342,0,0,0-.323-.026c-.083,0-.161-.034-.2-.03-.165-.2-.327-.2-.567,0-.038.071-.038.038-.12.038-.282-.094-.327-.229-.533-.376a7.305,7.305,0,0,0-.815-.319c-.158.105-.113.274-.376.143a3.677,3.677,0,0,0-1.664-.436c-.041.034-.124,0-.162,0a.935.935,0,0,0-.687.049,5.443,5.443,0,0,0-3.321,1.371l-1.386,1.221c-.394.417-.909.838-1.3,1.322-.154.308-.515.454-.669.751a12.072,12.072,0,0,0-.9,1.277,3.29,3.29,0,0,0-.785,1.007,6.5,6.5,0,0,0-.853,1.446,15.49,15.49,0,0,0-1.24,2.254c-.116.342-.5.928-.657,1.337a5.882,5.882,0,0,0-.3,1.029c-.071.308-.146.545-.259.89a3.494,3.494,0,0,0-.143.92c.086.165-.068.511.135.575.331.2.376.533.545.834a.8.8,0,0,0,.657.462.552.552,0,0,0,.376-.109c.079-.139.282-.177.481-.184a.751.751,0,0,0,.642-.252,1.8,1.8,0,0,1,.6-.421l.278-.177a6.762,6.762,0,0,0,1.187-1.082,5.739,5.739,0,0,1,.947-.905c.116-.139.278-.177.436-.349a5.337,5.337,0,0,0,.669-.8c.237-.278.515-.451.751-.729.2-.177.477-.353.428-.624,0-.169.158-.24.319-.244a.233.233,0,0,0,.2-.177c0-.1,0-.1-.083-.131s-.038.034-.038.135c0,.169-.12.038-.24.041h-.2c.045.1-.079.139-.2.038v.135c.079.068.12.068.083.1a.173.173,0,0,1-.285,0c-.038,0-.12-.1,0-.1a.21.21,0,0,0,.2-.143c-.124-.03-.244-.026-.439.214-.041.038-.038.207-.2.143s.034-.207.154-.244c.282-.139.436-.485.751-.695.083,0,.083-.038.162-.105,0-.135.034-.139.158-.177,0,0,.038-.068.12,0,0,.034-.079.135-.079.135-.116.105-.278.143-.233.413a.541.541,0,0,0,.376-.552.274.274,0,0,1,.158-.274.552.552,0,0,1,.2-.109,5.675,5.675,0,0,1,1.221-1.251c.079-.068.158-.173.278-.177s.285,0,.282-.109,0-.135.038-.1c.285.094.376-.18.477-.316s.116-.278.274-.349a1.3,1.3,0,0,0,.439-.316c.2-.24.436-.349.631-.56.083-.034.083-.034.12-.034v.135c-.12.038-.116.207-.192.413a5.439,5.439,0,0,0-.624.932,18.406,18.406,0,0,0-1.052,1.657c-.62,1.168-1.4,2.273-1.98,3.546-.229.548-.5,1.2-.8,1.784a3.107,3.107,0,0,0-.376,1c0,.068-.038.135-.158.173-.2.177-.15.413-.184.684,0,0,0,.068.041.068.207.131.169.267.049.338-.116.139-.038.207,0,.237.124.068.165.068.165.1.049.27.252.376.537.5a2.228,2.228,0,0,1,.609.188c.041.034.083.034.2,0,.323,0,.319-.244.274-.413.2-.109.2-.21.2-.312s0-.338.192-.413a5.033,5.033,0,0,0,.518-.349c.116-.139.192-.346.376-.417a.4.4,0,0,0,.274-.346c0-.139.113-.274.237-.21.207.131.2,0,.2-.109a.312.312,0,0,1,.034-.2c.24-.109.4-.349.68-.357.282-.075.278-.278.376-.485.274-.244,1.578-1.533,1.735-1.773l1.3-1.153c.24-.105.319-.21.481-.282a2.228,2.228,0,0,1,.552-.59.507.507,0,0,0,.237-.244l.274-.346a1.469,1.469,0,0,0,.417-.394Zm-16.6,3.685c-.083,0-.083-.068-.083-.135s0-.034.079-.034.083.03.083.03c.015.068.015.135-.064.139Zm7.486,2.336c-.041-.131,0-.237.237-.274Zm.406.06h-.038c-.083-.064,0-.068.038-.1s0,.034.041.034c.026.064-.026.064-.026.064Zm.135-1.127c-.038.034-.038.1-.158.038-.041,0-.041-.034,0-.135.12-.071.116-.173.237-.21.015.139-.064.173-.064.3Zm2.107-1.442c-.038,0-.162-.068-.041-.135-.041-.068.038-.071.079-.071.12,0,.12,0,.162.064s-.1.143-.184.146Zm.075-2.01c.244.1.045.237,0,.376a1.126,1.126,0,0,0,0-.372Zm.2-.308c-.041-.1-.045-.135.075-.24,0,.135.165.165,0,.3.023.071-.056.041-.06-.064Zm.071-.376c0-.034.12-.071.12-.071.12-.071.2,0,.2.131a.421.421,0,0,1-.308-.06Zm.376.6c0,.034-.083.038-.162.038-.162,0-.162-.03-.207-.131.323,0,.376-.177.4-.312a.27.27,0,0,1,.24-.143.751.751,0,0,0-.252.552Zm.909-.751c0,.2-.237.24-.376.312-.041,0-.041,0-.041-.064.034-.173.274-.244.353-.349.041,0,.083,0,.083.034v.09Zm-.346-1.048c0-.135.075-.169.075-.2.079-.139.079-.173.158-.143a.217.217,0,0,1,0,.173c.026.158-.094.09-.214.2Zm.624-1c-.041,0,0-.1,0-.135s.12-.071.2,0c-.026.053-.023.188-.184.158Zm.192-.413a.12.12,0,0,1,0,.173h-.041a.135.135,0,0,1,.06-.15Zm.041,1.8c-.12,0-.12,0-.124-.064,0,0,0-.068.12-.071,0,0,.041,0,.041.068s.023.09-.019.09Zm1.251-3.595-.045-.068c0-.034.041-.034.041-.034h.079c.023.053.023.12-.056.124Zm-6.859-1.98c0,.1-.075.135-.158.139-.038.068-.038,0-.041-.034.038-.1.038-.135.12-.139S186.219,93.083,186.219,93.128Zm-.053-.545c-.079.105-.079.105-.158.143-.041-.146,0-.15.158-.154Zm-1.157,2.374a.292.292,0,0,1-.237.143c0-.139.075-.207.116-.207s.12-.015.12.053Zm-.214-.541-.083-.064h.124c.12.049,0,.053-.041.053Zm.026-.68a.229.229,0,0,1-.158.244c0-.146.158-.15.158-.255Zm-.481,1.878c0-.2.113-.274.353-.451a.454.454,0,0,1-.353.451c.041.034.041.1-.079.105,0-.079.038-.079.079-.113Zm-.582.721c.038-.105.079-.139.158-.109.045.1,0,.139-.075.207s-.24.143-.274.312A.376.376,0,0,1,183.758,96.336Zm-.635.522c.083.034-.038.139-.034.24.041,0,.162.064.2.064,0-.068-.083-.135,0-.173s.165.1.248.165c-.083.038-.124,0-.244,0-.041.034.376.229-.034.237a.969.969,0,0,0-.282.109.338.338,0,0,1,.282-.109c-.124-.1-.285-.128-.169-.3h-.12a.222.222,0,0,1,.143-.233Zm-.312.417-.083.034a.886.886,0,0,1-.323,0,.871.871,0,0,1,.4-.049Zm-.03.511c0,.169-.075.169-.154.274a.289.289,0,0,1,.146-.274Zm-.255,1.093h.105l-.274.312Zm-.207-.2c0,.068,0,.1-.12.105-.011-.105.03-.105.113-.105Zm-.24.207c.124,0-.071.308-.071.308a.428.428,0,0,1-.2.041,1.375,1.375,0,0,1,.267-.349Zm-.432.455c-.038.135,0,.27-.075.308s-.12.034-.12,0c-.011-.135.109-.173.188-.308Zm-.03.477c0,.068-.079.1-.116.105s0-.071.038-.105Zm-.5.86s0-.1.079-.105v.1l-.315.316c-.049,0,.229-.312.229-.312Zm-.308.687a.353.353,0,0,1-.12.071c-.162-.064,0-.173-.128-.27.158.064.237.1.24.2Zm-.413-.376c.086.237-.034.27-.154.376a.4.4,0,0,1,.139-.349Zm-.706.9a.315.315,0,0,1,.116-.308c-.008.113-.124.218-.124.319Zm.346.947h-.079c0-.034.079,0,.079,0s0-.1.079-.105c.038-.068.038-.169.2-.173.038,0,.12.064.041.064-.169.083-.12.323-.327.225Zm5.334-1.656c0,.068,0,.068-.12.071v-.2c.109.008.154.075.113.143Zm.669-.8a.263.263,0,0,1-.075.207v.053a.308.308,0,0,1-.038.135l-.083-.03c0-.068,0-.068.079-.139h.041c-.011-.109.053-.146.053-.214Zm1.412-1.8c0-.207.075-.24.237-.278a2.447,2.447,0,0,0-.244.289Zm2.134-2.088c.158-.105.158-.177.323,0Zm.552-.492a.173.173,0,0,1,.24-.139v.1a.522.522,0,0,1-.229.049Zm1.067-1.146c-.079.139.124.135.2.165,0,.1.083-.034.083.1,0,.034-.079.034-.158.038h-.2c0,.034-.038.071-.038.139,0,0,.083.1,0,.1a.172.172,0,0,1-.207-.131c0-.034.079-.139-.083-.1s-.162,0-.24.109v.068c.248.1.128.233.131.338a.225.225,0,0,1-.116.173c-.161,0-.285-.03-.289-.165-.041-.034-.041-.135.079-.105.041,0,.124.068.12,0s-.079-.034-.079-.034a.544.544,0,0,0-.376.113A6.829,6.829,0,0,1,189,96.67c-.473.454-.95.838-1.465,1.258a6.343,6.343,0,0,1-1.067.943c-.477.376-.871.838-1.266,1.127-.24.139-.394.451-.676.59a2.254,2.254,0,0,1-.834.563l-.079.038c-.071.409-.706.935-1.025,1.078-.481.214-.631.695-1.067.977-.162.038-.2.139-.4.18a.15.15,0,0,0-.116.135c0,.105-.079.105-.162.109-.161-.064-.041-.1-.041-.169s.038-.105,0-.207c-.158.143-.278.109-.563,0,.4-.113.394-.417.552-.556.079-.139,0-.308.154-.346s.116-.105.079-.1c-.165-.169-.09-.27.03-.342-.2.038-.21-.376-.53-.192,0-.237.158-.24.319-.244a.454.454,0,0,0,.515-.353c0-.068,0-.1.041-.1a4.845,4.845,0,0,0,.781-1.127c.075-.169.071-.342.188-.481s-.041-.165-.045-.237a1.878,1.878,0,0,0,.751-1.037v-.135c.439-.214.511-.657.826-1.037.038-.071-.045-.1-.049-.237.244.026.282-.109.357-.282a2.629,2.629,0,0,1,.473-.556l.353-.481c.034-.207.233-.376.308-.552s.24-.143.376-.248c.2-.274.515-.417.71-.661a5.14,5.14,0,0,0,.669-.729c.116-.24.4-.316.676-.458,0,0,.041,0,.041-.068a2.521,2.521,0,0,1,.913-.7c.439-.113.714-.458,1.074-.6.439-.18.879-.376,1.243-.5a2.929,2.929,0,0,1,1.326-.2c.2,0,.323,0,.447.124.041.034.162,0,.2,0a1.127,1.127,0,0,1,.732.15c.12,0,.12.068.161.064.285.1.409.162.21.406a15.09,15.09,0,0,1-.973,1.551.421.421,0,0,1-.278.21c-.041,0-.12.038-.116.105-.075.24-.4.316-.515.59-.075.1-.24.038-.316.244,0,.034-.041.034-.038.135.041.034.12-.034.12-.034a2.909,2.909,0,0,1,.436-.319c-.2.177-.068.582-.511.59a.338.338,0,0,1-.244-.06,4.7,4.7,0,0,1-.5.387Zm-2.821,7.2a2.982,2.982,0,0,1-.545.894c.116-.139-.049-.376.229-.481-.128-.376.229-.582.376-.924a4.156,4.156,0,0,1,.424-.826.45.45,0,0,0,.116-.173.659.659,0,0,0,.376-.853,1.536,1.536,0,0,0,.511-.725.376.376,0,0,1,.233-.376,9.017,9.017,0,0,0,.582-1c.192-.413.507-.751.751-1.172a5.093,5.093,0,0,0,.376-.654c0-.068.083-.071.162-.139a11.669,11.669,0,0,0,.894-1.5.83.83,0,0,1,.274-.244c0-.034,0-.135.041-.034.12.03,0,.1,0,.135l-.545.928c-.154.312-.376.624-.545.932-.27.413-.507.691-.751,1.071-.316.451-.624,1-.935,1.5a9.8,9.8,0,0,1-.635,1.206,5.029,5.029,0,0,1-.394.552.635.635,0,0,1-.154.342c-.116.105-.233.244-.233.346s-.116.207-.154.244a2.848,2.848,0,0,1-.462.962Zm1.183-1.183c0,.169-.075.308-.319.177.038-.034.038-.173.075-.207s.079-.135.12-.139c.113.011.116.146.116.18Zm-.624,1c-.079.139-.2.173-.274.376l-.041-.068c-.011-.154.105-.259.308-.3Zm-.255,1.194c0,.034,0,.034-.079.038,0-.034,0-.034-.045-.1.083-.071,0-.169.24-.21,0,0,0,.034.041.034-.008.113-.165.184-.165.252Zm.488.09a.808.808,0,0,1-.237.278.819.819,0,0,1,.068-.511.537.537,0,0,0,.316-.312c0-.068.041-.071.124,0s.079.03.083.131c-.165.146-.162.285-.361.424Zm.346-.721c-.079,0-.161,0-.161-.064a.191.191,0,0,1,.158-.139c.041,0,.162,0,.165.1-.008.045-.128.116-.169.116Zm5.112-2.464c.12-.139.158-.173.278-.177a.376.376,0,0,1-.286.188Zm.627-.83c0-.1.116-.173.24-.109a.311.311,0,0,1-.248.12Z" transform="translate(-111.642 -55.566)" fill="#c29820"/>
    <path id="Path_579" data-name="Path 579" d="M199.8,117.271s-.12,0-.12.038a.2.2,0,0,0,.2.1c0-.1.038-.135.038-.207A.259.259,0,0,0,199.8,117.271Z" transform="translate(-124.679 -73.177)" fill="#c29820"/>
    <path id="Path_580" data-name="Path 580" d="M202.643,115.565c0,.1-.158.173-.2.312-.041.034-.161.038-.158.173h.12a.308.308,0,0,0,.2-.139c0-.034.079-.071.038-.139s.038-.2.278-.21C202.759,115.426,202.677,115.362,202.643,115.565Z" transform="translate(-126.309 -72.075)" fill="#c29820"/>
    <path id="Path_581" data-name="Path 581" d="M263.17,98.326c.2-.071.376-.143.353-.346C263.324,98.018,263.245,98.157,263.17,98.326Z" transform="translate(-164.321 -61.177)" fill="#c29820"/>
    <path id="Path_582" data-name="Path 582" d="M259.478,102.87c-.24.038-.278.173-.4.278C259.324,103.212,259.4,103.039,259.478,102.87Z" transform="translate(-161.767 -64.23)" fill="#c29820"/>
    <path id="Path_583" data-name="Path 583" d="M242.617,117.714c.083-.038.079-.105.038-.207a.113.113,0,0,0-.162.038c-.034.274-.4.282-.473.488a2.48,2.48,0,0,1,.526.056C242.463,117.921,242.418,117.752,242.617,117.714Z" transform="translate(-151.116 -73.357)" fill="#c29820"/>
    <path id="Path_584" data-name="Path 584" d="M259.2,101.149c-.165-.165,0-.3-.049-.439l-.158.308C258.917,101.157,259.037,101.119,259.2,101.149Z" transform="translate(-161.698 -62.881)" fill="#c29820"/>
    <path id="Path_585" data-name="Path 585" d="M260.614,102.12c-.162.038-.2.109-.12.173A.158.158,0,0,0,260.614,102.12Z" transform="translate(-162.625 -63.761)" fill="#c29820"/>
    <path id="Path_586" data-name="Path 586" d="M246.3,112.012l.12.064a2.549,2.549,0,0,1,.477-.417c.12-.071.2-.139.2-.244a.229.229,0,0,0-.045-.135l-.12.038a4.284,4.284,0,0,0-.627.695Z" transform="translate(-153.788 -69.481)" fill="#c29820"/>
    <path id="Path_587" data-name="Path 587" d="M244.473,116.424c-.079.034-.038.1.086.135v.2c.038-.034.12-.071.12-.105.075-.105.075-.207-.045-.2C244.646,116.454,244.514,116.39,244.473,116.424Z" transform="translate(-152.622 -72.686)" fill="#c29820"/>
    <path id="Path_588" data-name="Path 588" d="M264.205,97.52c-.12.034-.2.071-.2.173C264.089,97.655,264.126,97.588,264.205,97.52Z" transform="translate(-164.845 -60.889)" fill="#c29820"/>
    <path id="Path_589" data-name="Path 589" d="M248.547,110.046c0,.034-.041.068-.038.1.079.03.12.03.12,0,.237-.244.518-.316.631-.627a2.294,2.294,0,0,1-.4.214C248.784,109.836,248.585,109.907,248.547,110.046Z" transform="translate(-155.167 -68.382)" fill="#c29820"/>
    <path id="Path_590" data-name="Path 590" d="M240.936,113.588c.12-.105.116-.173.075-.207-.124-.1-.2,0-.24.075-.233.312-.635.526-.868.8-.477.451-.992.871-1.5,1.326-.116.173-.518.282-.511.556.237-.21.6-.285.834-.53a3.8,3.8,0,0,1,.834-.7c.316-.248.47-.59.789-.751A2.782,2.782,0,0,0,240.936,113.588Z" transform="translate(-148.537 -70.767)" fill="#c29820"/>
    <path id="Path_591" data-name="Path 591" d="M253.806,108.133a1.784,1.784,0,0,1,.473-.488c.038-.068.12-.105.075-.169s-.083-.169-.162-.135-.285,0-.24.143,0,.135-.079.105-.083-.034-.045-.135-.041-.169-.045-.2l-.237.177c-.12.068-.278.143-.2.24s.161.064.376.094c0,.2-.2.312-.229.616C253.607,108.306,253.769,108.234,253.806,108.133Z" transform="translate(-158.176 -66.965)" fill="#c29820"/>
    <path id="Path_592" data-name="Path 592" d="M241.743,75.285l.856-1.379a.62.62,0,0,1,.034-.274,3.846,3.846,0,0,0,.627-.83c.075-.173.192-.346.15-.481-.083,0-.124-.03-.124-.131.376,0,.518-.146.59-.556.12-.105.038-.173-.045-.237.12-.038.2.026.24-.075a12.391,12.391,0,0,0,.819-1.311c.233-.376.47-.657.661-1.033a7.69,7.69,0,0,1,.969-1.724c.436-.451.62-1.2,1.176-1.5a.639.639,0,0,0,.376-.485c.079-.139.113-.346.192-.376.443-.079.394-.518.714-.627.15-.447.751-.631.943-1.078a.965.965,0,0,0,.064-.751.917.917,0,0,0-.9-.59c-.041,0,.079-.105,0-.135a1.593,1.593,0,0,0-1.127-.282c-.376.079-.357.282-.593.492a8.936,8.936,0,0,1-.751.9,8.206,8.206,0,0,1-.582.932c-.2.244-.376.556-.627.864l-1.5,2.415c-.233.447-.973,1.653-1.243,2.1a16.014,16.014,0,0,1-.943,1.518l-1.127,1.826c-.116.24-.237.312-.522.218-.2-.03-.289-.267-.451-.263-.646-.053-1.179-.447-1.829-.567a2.562,2.562,0,0,0-1.093-.146,5.7,5.7,0,0,0-1.251.131,5.533,5.533,0,0,0-2.04.83c-.282.143-.376.376-.6.492a10.556,10.556,0,0,0-1.228.943c-.71.7-1.345,1.258-1.976,1.916-.357.349-.586.8-.9,1.127a5.383,5.383,0,0,0-.669.864c-.116.173-.316.278-.353.451a3.11,3.11,0,0,1-.751,1.1c-.267.616-.661,1.1-.932,1.653-.376.789-.808,1.649-1.127,2.472-.229.582-.578,1.127-.751,1.717a1.758,1.758,0,0,1-.263.721,1.2,1.2,0,0,0-.233.447c0,.3-.026.612.263.841s.421.751.947.8c.079,0,.079,0,.083.03a.789.789,0,0,0,.924-.124c.319-.244.432-.586.834-.751.2-.105.353-.376.511-.488.376-.244.593-.522.913-.7l1.551-1.093a8.873,8.873,0,0,0,.834-.631,3.617,3.617,0,0,1,.672-.593,5.426,5.426,0,0,0,.988-.871c.556-.556,1.067-1.127,1.5-1.563a3.707,3.707,0,0,0,.83-.871c.038-.1.116-.173.316-.278s.158-.24.274-.447c-.158.173-.53-.056-.642.184l.079.03c.041,0,.116-.207.2-.038.124.1.045.169-.075.207a.8.8,0,0,1-.4.282c-.079.135-.116.207-.319.143s-.165-.03-.2.071c-.038.038.045.135-.034.139-.323,0-.278.244-.518.417a.207.207,0,0,0-.113.312c.041.064-.079.135-.079.135a.9.9,0,0,0-.639.357h-.12a2.952,2.952,0,0,0-.278.177,2.881,2.881,0,0,1-.871.751c-.154.274-.432.417-.639.285a.639.639,0,0,0-.6.116,2.013,2.013,0,0,1-.913.635c-.12,0-.162.105-.2.038-.12-.1-.041-.1.038-.169s.12-.071.038-.173c0-.068-.124-.03-.162.038a5.3,5.3,0,0,0-.83.751,8.316,8.316,0,0,0-.751.751c-.038.068-.2.139-.2.038a.751.751,0,0,1,.071-.511l.342-.89a10.389,10.389,0,0,1,.421-1.029,16.439,16.439,0,0,0,.973-1.551c.376-.691.819-1.277,1.21-1.9a9.1,9.1,0,0,1,.939-1.179,6.1,6.1,0,0,1,.394-.485c.357-.282.59-.661.988-.943.278-.173.432-.485.71-.729a4.959,4.959,0,0,0,1.153-.751,6.713,6.713,0,0,1,1.6-.785,1.95,1.95,0,0,1,.282-.143c.522-.113.92-.327,1.442-.409a2.7,2.7,0,0,1,1.7.131c-.038.1-.2.143-.278.21-.034.207-.278.177-.316.346-.154.346-.717.462-.785.905-.323.075-.357.346-.594.522.376.128.6-.218.965-.192,0,0,.038-.105,0-.1-.12,0-.041-.034-.041-.068,0-.237.2-.244.316-.349a7.084,7.084,0,0,0,.473-.609c.192-.312.717-.323.871-.669a1.852,1.852,0,0,1-.308.687,2.942,2.942,0,0,1-.466.86c-.466.751-.751,1.615-1.194,2.442a13.343,13.343,0,0,1-.729,1.548c-.237.24-.188.616-.346.823a7.506,7.506,0,0,0-.3.89,14.115,14.115,0,0,1-1.033,2.573,8.776,8.776,0,0,0-.676,2.156,10.918,10.918,0,0,0-.3,1.161c-.038.105-.071.342.053.443.376.128.413.432.578.6.124.1.128.267.252.376s.169.267.376.128h.038a.353.353,0,0,0,.488.09c.4-.045.838-.462.669-.751a2.374,2.374,0,0,1-.019-.751,5.836,5.836,0,0,1,.376-1.367c.116-.308.147-.646.263-.958.233-.376.3-.823.5-1.2a8.276,8.276,0,0,0,.376-.928L239,81.145c.075-.308.229-.582.146-.785-.09-.27.034-.24.154-.312s.278-.143.237-.207c-.086-.169.075-.274.109-.481.233-.413.424-.823.62-1.236.27-.376.3-.856.657-1.172a1.923,1.923,0,0,0,.5-.86c.158-.278.357-.417.229-.721C241.619,75.289,241.7,75.285,241.743,75.285Zm-15.494,9.5c0,.034-.038.068-.12.071,0-.068.038-.139.079-.139C226.245,84.653,226.327,84.717,226.248,84.788Zm.778-1.311a3.353,3.353,0,0,1-.233.376h-.079a1.229,1.229,0,0,0-.327-.094c-.041,0-.041-.034-.041-.034l.079-.071c.285.1.443.026.439-.214a.345.345,0,0,1,.12-.034C227.063,83.421,227.026,83.477,227.026,83.477Zm.075-.2c-.041-.135-.045-.2.116-.308A.308.308,0,0,1,227.1,83.274Zm.545-1c-.086-.135,0-.169.075-.207a.263.263,0,0,1-.075.225Zm.056-1.022a.538.538,0,0,1,.113-.376.259.259,0,0,1-.113.376Zm.751-.458c0-.135.038-.173.116-.207.049.1-.034.135-.113.2Zm1.127-2.438c.083,0,.161,0,.083.064v.034c-.038.038-.038.038-.162-.03-.007-.034.113-.071.071-.068Zm.1.879c0,.034-.079.071-.12.071a.049.049,0,0,1-.083-.03c0-.071.079-.105.12-.105s.113,0,.075.064Zm.154-.409a.665.665,0,0,1,.473-.353.8.8,0,0,1-.481.353Zm12.516-5.356c-.038.068-.079.068-.158.105l-.124-.1c0-.068,0-.1.12-.105.2-.038-.049-.27.233-.308-.045.135-.041.3-.079.409Zm.886-1.927a1.88,1.88,0,0,0,.316-.244c.124.03.086.135.086.169a.492.492,0,0,1-.237.244c0,.034-.162.071-.2-.03s-.011-.1.03-.139Zm-.522-1.581c.116-.105.113-.244.316-.282a1.465,1.465,0,0,0-.154.376c-.038.068-.079.068-.12.034a.168.168,0,0,1-.049-.128Zm0,1.7a.871.871,0,0,1,.353-.417h.041a3,3,0,0,0-.274.481c0,.034,0,.1-.12.071a.09.09,0,0,1-.007-.135Zm.131.473c0-.068.158-.173.24-.109a.2.2,0,0,1,.045.3c-.278.075-.353.349-.631.56a4.1,4.1,0,0,0,.338-.736Zm-.376-1.829c.041-.034.083,0,.124.034a1.394,1.394,0,0,1-.233.376s-.083-.034-.083-.068C242.359,70.548,242.4,70.409,242.471,70.3Zm-.229.485a.376.376,0,0,1-.071.376c-.041.034-.083,0-.124-.034-.041-.105.12-.173.2-.342Zm-.188,2.381c.041.068-.034.169-.158.173s-.041-.068,0-.135a.751.751,0,0,1,.154-.376.939.939,0,0,0-.282.038c.038-.1.038-.1.282-.038S242.051,73.035,242.055,73.17Zm-.781-.593c-.034.169-.071.308-.233.312.034-.173.116-.207.233-.312Zm-.308,2.318a.537.537,0,0,1-.376.62,5.126,5.126,0,0,1,.376-.62Zm-.586.932c.041,0,.083,0,.083.034a1.337,1.337,0,0,0-.038.169c0,.068-.079.071-.116.071l.034-.139c0-.1,0-.135.038-.135Zm-2.021,1.611a2.2,2.2,0,0,0,.428-.778c.116-.207.113-.409.27-.582a7.731,7.731,0,0,0,.548-.661c.075-.274.274-.481.346-.751.038-.2.158-.207.278-.278.086.237-.154.376-.188.548a17.631,17.631,0,0,1-1.161,2.254c-.116.207-.353.417-.267.687.045.135-.278.244-.481.146a.947.947,0,0,1,.225-.586Zm1.5-1.022-.124-.064a.045.045,0,0,1,0-.068.12.12,0,0,1,.131.131ZM239,77.49c-.038.068.045.1-.034.2-.041.038.045.169-.038.207,0,0-.038,0-.041-.034-.083-.068,0-.169,0-.237L239,77.49c.075-.207.071-.477.312-.552.128.135-.105.515-.308.552Zm.147.947c-.041.105-.038.139-.162.139l-.041-.03a.18.18,0,0,1,.079-.173l.143-.21c.105.169.026.207,0,.274Zm.308-.548c-.12,0-.083-.068-.124-.135.086-.068.169-.071.131.135ZM236.1,83.045c.124.034.124.034.124.1s0,.169-.158.173c-.079,0-.24,0-.2-.1S235.984,83,236.1,83.045Zm-.717,1.991c.026-.578.458-1.033.526-1.544.169.214-.21,1.277-.507,1.559Zm.62.7c.041-.071.12-.038.2,0a.154.154,0,0,1-.2.015Zm.071-.443a.229.229,0,0,1-.124-.068c-.041-.064,0-.1.079-.1s.244.026.244.094-.12.083-.2.083Zm-.139-.71c0-.443.154-.447.439-.248-.12.083-.364.023-.439.263Zm.323-1.844c-.086-.135-.049-.27.192-.376a.717.717,0,0,1-.192.391Zm.274,1.386c-.041,0-.083,0-.083-.03a.085.085,0,0,1,.079-.071c.041,0,.083,0,.083.034a.092.092,0,0,1-.083.083Zm-.023-.95.038-.034c.079-.071.083.03.124.1-.041-.019-.12.053-.143-.049Zm.094-1.055c0,.034,0,.1-.075.105s-.124,0-.124-.068c-.083-.064-.083-.131.038-.135.079-.071.116-.139.034-.24-.086-.2.316-.346.188-.548,0-.034.041-.068.12-.068a.627.627,0,0,0,.192-.548.192.192,0,0,1,.116-.207c.158-.139.2-.244.192-.312-.128-.376.15-.616.308-.789.079-.034.079-.034.075-.105,0-.376.27-.65.424-1,.038-.034.079-.068.12-.034s.083.1,0,.135a8.441,8.441,0,0,0-.5,1.27,8.185,8.185,0,0,0-.725,1.683,3.024,3.024,0,0,1-.387.871Zm1.461-1.529-.038.068c-.041,0-.041-.034-.083-.03l.079-.105c.079.015.041.049.041.083Zm-.6.218c-.083-.034-.086-.169-.086-.2a.586.586,0,0,1,.376-.177c.045.169-.079.169-.158.24.03.124-.008.218-.132.154Zm.068,1.127s-.165-.03-.124-.1a.219.219,0,0,0,0-.169c.24,0,.24.026.244.094s.041.177-.12.18Zm.165-1.566c-.045-.068-.165-.1-.045-.1a.184.184,0,0,1,.083-.038s.038,0,.038.034Zm-.639,3.82c-.041,0-.083,0-.083-.03a.293.293,0,0,1,.075-.24c0,.075.128.207.008.278Zm.6-1.367c-.034.173-.113.346-.147.548a.12.12,0,0,1-.12.105c-.12,0-.2-.03-.165-.131a1.375,1.375,0,0,1,.188-.616c0-.034.041-.071.12-.038S237.716,82.752,237.66,82.82Zm.3-.789a.162.162,0,0,1-.162-.1c.038-.1.075-.169.2-.173s.12.03.079.064c.06.068-.019.173-.1.207Zm.575-1.4c-.034.2-.154.342-.146.582.041.1-.075.2-.158.24-.162.038-.207-.165-.327-.2h-.041c-.079.034-.075.24-.278.177s0-.27.192-.376c.12-.173.24-.105.323,0,.079-.1.319-.21.192-.447,0-.068.041-.1.12-.135a.229.229,0,0,1,.161.026c.1.056-.023.094-.023.128Zm-.026-1.052c.041-.071.083-.038.083.03.045.135-.075.173-.2.278a.244.244,0,0,1,.128-.308Zm-.139-.781a.421.421,0,0,1,.237-.342c-.064.086-.064.2-.222.342Zm.349-.687c.12,0,.083.034.083.034s.041.034-.083.034l-.079-.03a.15.15,0,0,1,.094-.038Zm.165,1.878c0,.034-.079.068-.12.038-.083-.1-.128-.169.034-.24.056.056.18.086.1.192Zm2.434-4.646a1.446,1.446,0,0,0-.462.86.552.552,0,0,1-.274.417.72.72,0,0,0-.154.342c0,.2-.2.346-.477.248-.041.071,0,.139,0,.207.169.267.09.439-.188.65a.116.116,0,0,0-.038.068c.165.165-.075.274-.154.413a1.458,1.458,0,0,0-.188.582c.086.165-.237.173-.353.376.034-.27.03-.439-.177-.6-.124-.135.075-.24.2-.244.323.026.4-.079.439-.316a.7.7,0,0,1,.2-.278.218.218,0,0,0,.03-.3v-.068c.038-.139.113-.346-.131-.439a.169.169,0,0,1,.038-.105c.116-.207.274-.447.47-.725.041.135.045.24.128.27.24-.075.237-.244.27-.447.071-.409.376-.657.624-1.071.038-.1.12,0,.162,0a.428.428,0,0,1,.2.1c.019.023-.1.026-.143.06Zm.233-2.212-.083-.1.075-.1c.045.1.045.135.086.131s.015.056-.064.06Zm-.026-1.086a.8.8,0,0,1,.312-.552.143.143,0,0,1,.161,0c.041.068,0,.034-.041.1Z" transform="translate(-139.626 -38.346)" fill="#c29820"/>
    <path id="Path_593" data-name="Path 593" d="M252.053,106.255l-.631.695c-.041.034,0,.1.041.131l.789-.9A.3.3,0,0,0,252.053,106.255Z" transform="translate(-156.975 -66.296)" fill="#c29820"/>
    <path id="Path_594" data-name="Path 594" d="M252.729,108.887a.169.169,0,0,0,.083-.038c-.041,0-.041-.034-.124-.03l-.038.034C252.65,108.887,252.65,108.887,252.729,108.887Z" transform="translate(-157.753 -67.944)" fill="#c29820"/>
    <path id="Path_595" data-name="Path 595" d="M256.048,104.58c-.079.038-.161,0-.158.139C256.014,104.787,256.051,104.681,256.048,104.58Z" transform="translate(-159.775 -65.297)" fill="#c29820"/>
    <path id="Path_596" data-name="Path 596" d="M258.993,102.361s0,.034.083.034c0,0,.038.03.079-.038a.532.532,0,0,1-.124-.03C258.971,102.293,258.993,102.327,258.993,102.361Z" transform="translate(-161.711 -63.882)" fill="#c29820"/>
    <path id="Path_597" data-name="Path 597" d="M255.352,104.422c.083,0,.244.026.128.2-.041.034,0,.068,0,.1.083.034.124.03.162,0,.116-.24.518-.421.349-.654-.041-.068,0-.2.079-.173.244.1.158-.173.071-.3,0,0,.079-.071.12-.071v-.068c.038-.038.244.06.2-.075s-.161,0-.244-.026-.041-.034-.079-.034c.038-.135.2-.207.192-.308a1.45,1.45,0,0,0-.635.421c.161-.071.376-.109.406.162a1.833,1.833,0,0,0-1.029.751A1.11,1.11,0,0,0,255.352,104.422Z" transform="translate(-159.264 -64.317)" fill="#c29820"/>
    <path id="Path_598" data-name="Path 598" d="M308.37,66.426a.207.207,0,0,0,.2-.143,1.4,1.4,0,0,1,.751-.695c0,.2-.154.308-.109.511a.248.248,0,0,1,.12-.038c.041-.034.041-.068.079-.068.274-.376.47-.793,1.029-.909.083,0,.12-.038.12-.105a.586.586,0,0,1,.237-.173c.2-.177.6-.218.717-.424.233-.413.751-.631,1.029-1.01.075-.24.357-.316.511-.556a2.171,2.171,0,0,1,.909-.905c.436-.316.466-.725.62-1.168.038-.038-.045-.1-.086-.169a1.563,1.563,0,0,1-.376-.376.639.639,0,0,0-.409-.2c-.162,0-.522.18-.65-.12h-.038a1.758,1.758,0,0,1-1.014-.113c-.282,0-.6.049-.721.289l-.346.751c-.376.751-.853,1.5-1.2,2.306a17.641,17.641,0,0,0-.962,2.13c0,.068.049.27,0,.3C308.52,65.81,308.607,66.148,308.37,66.426Z" transform="translate(-192.543 -37.319)" fill="#c29820"/>
    <path id="Path_599" data-name="Path 599" d="M283.11,109.482l.2-.312a.225.225,0,0,0-.161.071C283.106,109.316,283.148,109.418,283.11,109.482Z" transform="translate(-176.771 -68.163)" fill="#c29820"/>
    <path id="Path_600" data-name="Path 600" d="M305.87,116.939s0,.068.041.068a.289.289,0,0,0,.116-.207C305.949,116.875,305.919,116.875,305.87,116.939Z" transform="translate(-190.982 -72.927)" fill="#c29820"/>
    <path id="Path_601" data-name="Path 601" d="M304.6,118.644a.376.376,0,0,0,.154-.274C304.637,118.475,304.554,118.543,304.6,118.644Z" transform="translate(-190.181 -73.908)" fill="#c29820"/>
    <path id="Path_602" data-name="Path 602" d="M387.908,100.13c-.041,0-.161,0-.158.071s.041.1.165.165c.041,0,.079-.068.116-.135S387.99,100.13,387.908,100.13Z" transform="translate(-242.106 -62.519)" fill="#c29820"/>
    <path id="Path_603" data-name="Path 603" d="M328.938,87.666s-2.558-.071-3.715-.083c-1.153-.143-3.876-.124-6.081-.421-.642-.09-1.187-.173-1.656-.259a2.924,2.924,0,0,0-.556-.1c-.5-.1-.913-.192-1.288-.282a8.114,8.114,0,0,0-2.87-.316,1.224,1.224,0,0,0-.687.248c-.4.376-.1,1.1.376,1.356a4.965,4.965,0,0,0,1.615.289c.545.079,1.149.376,1.251.909.034.192,0,.376.034.59a.522.522,0,0,0,.022.071c-.244.751-.443,1.435-.545,1.739-.3.789-.421.9-1.01,2.3.086.233-.338.751-.533,1.007-.552.657-1.018,1.382-1.566,2.073a22.164,22.164,0,0,1-4.094,4.038,14.88,14.88,0,0,1-2.956,1.326c-.244.041-.563.15-.691-.154a1.776,1.776,0,0,1-.075-1.5c.2-.278-.218-.575-.143-.879a16.829,16.829,0,0,1,.793-2.366l1.5-2.753c.03-.049.053-.079.068-.109h0c.038-.034.038-.034.038-.068l.552-.691c.158-.177.27-.376.428-.556.631-.751.376-.751.98-1.54.237-.278,1.127-.432,1.236-.774.071-.24.274-.349.511-.488a.89.89,0,0,0,.556-.376.439.439,0,0,1,.443-.18c.2.1.443.023.488.259s.252.376.571.158a1,1,0,0,1,.556-.353c.376-.146.394-.376.147-.65,0-.034-.083-.068-.124-.165-.214-.507-.376-.6-.98-.488-.083,0-.161.038-.161,0-.252-.376-.65-.154-1.014-.146a6.01,6.01,0,0,0-3.448,1.1,3.282,3.282,0,0,0-1.127,1.033c-.95.905-.751.4-1.5,1.5-.274.346-.672.593-.826,1.037a10.62,10.62,0,0,1-.751,1.717,6.52,6.52,0,0,0-.424,1.127.376.376,0,0,0-.071.169.226.226,0,0,0,0,.053c-.068.24-.139.481-.222.717a1.327,1.327,0,0,1-.214-.113c-.041-.1-.124-.1-.162-.03-.158.24-.477.349-1.814,1.844,0,.068-.038.237-.116.274a2.63,2.63,0,0,0-.793.593,15.539,15.539,0,0,0-1.191,1.014c-.158.139-.436.282-.376.451a.62.62,0,0,1-.237.376c-.436.248-.916.428-1.315.71-.278.177-.751,0-1.044.263-.038.071-.2,0-.244-.026.079-.173-.09-.376.109-.548a.722.722,0,0,0,.154-.342c.116-.24.068-.545.346-.687,0,0,.041-.038.041-.071.113-.308.308-.65.421-.962.079-.169.353-.376.109-.612,0-.034-.086-.2.154-.207.2.06.282-.109.319-.248s.034-.27.071-.376c-.041,0-.079.038-.161,0a.105.105,0,0,1,.161,0l.357-.312c.116-.105.237-.143.233-.376-.124-.1.075-.24.154-.312s.319-.109.154-.308a.041.041,0,0,1,0-.068c.24-.075.278-.21.188-.481a.158.158,0,0,1,.083-.034c.237-.143.315-.349.511-.522.079-.105.158-.278.113-.342-.045-.2,0-.207.116-.244a.376.376,0,0,0,.237-.274,2.829,2.829,0,0,0,.315-.376c.2-.207.556-.353.376-.721v-.068c.282-.075.316-.316.473-.488.511-.624.984-1.213,1.454-1.837.158-.173.192-.409.376-.552a4.886,4.886,0,0,0,.665-.83c.316-.376.548-.83.86-1.209.041-.034.041-.068.038-.135,0-.477-.376-.751-.826-.9a2.311,2.311,0,0,1-.751-.458.687.687,0,0,0-1.014-.18,2.5,2.5,0,0,1-.8.376c-.6.15-1.04.533-1.563.684s-.751.593-1.273.71c-.2.038-.24.207-.4.244a12.88,12.88,0,0,0-2.145,1.581c-.672.593-1.3,1.255-1.934,1.878-.793.751-1.5,1.5-2.333,2.231-.315.312-.59.661-.905.973a3.622,3.622,0,0,1,.342-.789c.2-.278.188-.616.424-.894.12-.105.947-1.04,1.127-1.217a5.551,5.551,0,0,0,.424-.86,13.049,13.049,0,0,0,.657-1.27,8.625,8.625,0,0,0,.5-1.067c.041,0,.041,0,.041-.034a4.7,4.7,0,0,1,.192-.447,5.29,5.29,0,0,1,.188-.616.715.715,0,0,0-.586-.838c-.285-.128-.567-.154-.815-.252a5.734,5.734,0,0,1-.751-.376,1.386,1.386,0,0,0-1.213-.071c-.274.376-.019.849.18.811a.135.135,0,0,1,.161-.041c.124.034.083.1,0,.139-.143.785-.571,1.472-.751,2.254-.2.346-.376.657-.541,1a6.868,6.868,0,0,1-.853,1.551,9.161,9.161,0,0,1-1.025,1.074c-.237.278-.308.687-.582,1-.079.139-.075.274-.233.376-.041.038-.083.071-.079.139a3.68,3.68,0,0,1-.657,1.206c-.116.308-.27.582-.376.856a7.564,7.564,0,0,1-.447.751.169.169,0,0,1-.143-.053c-.124-.131.038-.207.116-.308l.12-.038c.075-.139.237-.21.274-.346-.041-.034-.12.038-.2.071a11.521,11.521,0,0,0-.992.909c-.593.376-.909.732-1.5,1.086s-1.228.913-1.788,1.266a11.454,11.454,0,0,0-1.194.71c-.6.252-1.074.6-1.717.89-.436.248-1.04.4-1.521.612,0-.034.041-.068.041-.105a1.127,1.127,0,0,0,0-.95c-.041-.034-.12-.064-.124-.131.079-.071.12-.038.161-.038a.259.259,0,0,0,.376-.146,2.413,2.413,0,0,1,.192-.481,2.231,2.231,0,0,1,.424-.721c.116-.274.312-.518.184-.823a.376.376,0,0,0,.27-.481c0-.034.083-.034.12-.038.2-.105.154-.342.154-.443,0-.274.071-.376.394-.349.12-.038.12-.105.2-.177a3.976,3.976,0,0,1,.624-.864,1.75,1.75,0,0,0,.229-.684.316.316,0,0,1-.12.038c-.041.034-.079.135-.2.071s0-.135.079-.207a1.611,1.611,0,0,1,.192-.376c.079-.139-.086-.3.154-.376-.165-.064-.376-.026-.376-.229-.116.071-.282,0-.376.146a.154.154,0,0,1,.124.03v.034c-.079.034-.083-.034-.124-.064a.376.376,0,0,1-.12-.034c-.207-.131-.323-.06-.4.113a.376.376,0,0,1-.316.244,2.729,2.729,0,0,1,.466-.691c.162-.139.165.1.248.2.12-.105.278-.278.481-.18,0,.068-.038.135,0,.2a1.127,1.127,0,0,1,.481-.248c-.4.316.086.237.049.406.116-.173.154-.308.4-.248-.248-.233-.207-.3.075-.308,0-.034.041,0,.037-.034H279.7c0-.068-.086-.165-.086-.233.075-.139,0-.173-.128-.2a.289.289,0,0,1-.113.342c-.124-.03-.079.071-.079.105a.24.24,0,0,1-.158.071c-.041-.034,0-.1,0-.135.038-.105.034-.173-.128-.2a.5.5,0,0,1-.165-.1c-.038-.034-.041-.1.038-.169s.12,0,.161.03a1.17,1.17,0,0,0,.207.2c.083-.071.12-.173.24-.143V94.48c.161.03.376-.041.484.023.2.064.2-.038.278-.143s.038-.24.2-.244.158-.139,0-.3c.244.1.282,0,.376-.075.237-.21.27-.518.548-.729.2-.105.2-.308.353-.413a4.571,4.571,0,0,0,.47-.691.83.83,0,0,1,.312-.485c.116-.105.2-.24.316-.346.237-.177.312-.485.507-.691.357-.282.083,0,.439-.319l1.067-1.044a1.431,1.431,0,0,0,.541-1c.034-.24-.338-.639-.627-.8s-.808-.116-1.127-.312c-.2-.131-.406-.056-.608-.086-.567-.124-1.168,0-1.322.473a1.5,1.5,0,0,1-.661.965l-.038.1a3.1,3.1,0,0,1-.466.864c-.2.308-.432.586-.665.932-.15.443.045.2-.27.548-.237.278-.109.548-.424.793-.477.349-.627.864-1.063,1.213l-1.082,2.1c.041.034,0,.1.045.135a.842.842,0,0,1-.154.443c-.158.177-.274.349-.376.485l-1.007,1.878c-.233.481-.545.932-.778,1.412a1.9,1.9,0,0,0-.376.552,3.4,3.4,0,0,1-.417,1.164,5.487,5.487,0,0,0-.3.687,2.906,2.906,0,0,1-.376.894l-.154.342a.413.413,0,0,0,.334.5.248.248,0,0,1,.207.165.5.5,0,0,0,.21.334c0,.1-.244.038-.2.173.045.237.169.338.451.376a1.294,1.294,0,0,1,.285.06,1.018,1.018,0,0,0,.89-.019,14.606,14.606,0,0,0,1.4-.545c.639-.285,1.315-.676,1.953-1.029a5.657,5.657,0,0,1,1.277-.751,2.875,2.875,0,0,0,.635-.492c.357-.21.992-.7,1.311-.947a7.562,7.562,0,0,1,.83-.665,9.044,9.044,0,0,0,1.014-.883c-.285.421-.541.793-.646.943a6.9,6.9,0,0,1-.9,1.412,1.01,1.01,0,0,0,.143.947c.207.2.409.263.575.432a1.1,1.1,0,0,0,.939.376c.2,0,.323-.075.526,0,.079-.105.2-.177.278-.278a13.181,13.181,0,0,0,.853-1.412c.12-.173.2-.413.312-.552.319-.177,1.45-1.837,1.728-2.047s.594-.59.95-.838c.357-.346.751-1,1.1-1.315.552-.593,1.228-1.127,1.859-1.709.672-.661,1.225-1.127,1.9-1.777a11.14,11.14,0,0,0,.868-.973l.627-.83c.432-.455.95-.8,1.382-1.258.161-.105.376-.177.233-.413a.15.15,0,0,1,.075-.2l.319-.214a6.211,6.211,0,0,1,.6-.353c.083-.034.161-.071.2,0s-.038.1-.079.139c-.158.139-.319.177-.477.316-.079.038-.2.071-.116.207.12-.071.2-.173.319-.177.4-.146.6-.454,1-.6.083-.038.037-.105,0-.2-.041,0-.079,0-.079.034a.128.128,0,0,1-.2.038.034.034,0,0,1-.041-.03c.038-.105.079-.105.158-.143.2-.038.376-.041.443-.146a1.446,1.446,0,0,1,.916-.53c-.083-.03-.041-.034,0-.068a2.442,2.442,0,0,1,.443-.18c0,.169-.116.24-.237.312-.466.793-1.055,1.5-1.521,2.276A32.907,32.907,0,0,0,296.3,93.03c0,.034-.041.068-.079.105a2.2,2.2,0,0,0-.624.932,2.756,2.756,0,0,1-.582,1.033,5.151,5.151,0,0,0-.624.965,5.226,5.226,0,0,1-.233.515,1.228,1.228,0,0,0-.421.53,12.875,12.875,0,0,1-1.007,1.923c-.075.207-.394.349-.147.65.041,0,0,.034-.038.034a1.814,1.814,0,0,0-.3,1,.969.969,0,0,0,.143.98c.169.267.417.466.624.751a2.182,2.182,0,0,0,.7.6,2.254,2.254,0,0,0,1.1.413,5.369,5.369,0,0,1,.687.086c.376.06.609.124.886-.154.038-.038.12-.038.2-.041a2.649,2.649,0,0,0,1.127-.6,3,3,0,0,1,.672-.526,1.949,1.949,0,0,0,.717-.376c.154-.192.477-.421.672-.627a10.8,10.8,0,0,0,1.457-1.566,1.439,1.439,0,0,1,.192-.2,2.629,2.629,0,0,0,.128,1.623,3.9,3.9,0,0,0,3,2.629c.327.06.646,0,1.052.079a1.878,1.878,0,0,0,1.127-.162,10.212,10.212,0,0,1,.958-.567,4.211,4.211,0,0,0,1.908-1.371c.552-.59,1.183-1.127,1.735-1.672.2-.173.439-.282.473-.488a14.455,14.455,0,0,1,1.4-2.1,16.094,16.094,0,0,0,1.446-2.141c.116-.24,1.206-2.066,1.281-2.2.27-.548,0-.849.21-1.4.038-.105-.086-.2,0-.274a3.777,3.777,0,0,0,1.176-1.555c.443-.113.233-.515.511-.691.038-.105-.086-.135-.207-.131s-.4.18-.443-.023.319-.075.44-.113a1.183,1.183,0,0,0,.282-.109.3.3,0,0,0,.06-.03,9.2,9.2,0,0,0,2.487.2c1.315.158.252,0,1.923,0C325.94,89.228,331.319,87.944,328.938,87.666Zm-19.082,1.5a.157.157,0,0,1,.083.034v.068a.147.147,0,0,0-.12-.03c-.041-.049,0-.083.038-.086Zm-31.447,7.719c.12,0,.124.068.124.135a.158.158,0,0,1-.116.139c-.124,0-.083-.068-.045-.135S278.289,96.891,278.409,96.887Zm2.378-3.621c.124,0,.128.131.128.165s0,.169-.079.139-.165-.1-.165-.165S280.666,93.24,280.787,93.266Zm-.714.424h.139c0,.034-.041.068-.079.071s-.083.034-.124-.034S280.032,93.691,280.073,93.691Zm-.248-.1a.086.086,0,0,1,.12-.071c0,.1,0,.135-.075.139s-.083-.045-.034-.068Zm-.436.349c.079-.1.285.064.376-.041.041,0,.083.034.041.1s0,.169-.158.139c-.041-.034-.083-.034-.079,0-.079.2-.161.071-.2,0C279.231,94.048,279.352,93.991,279.389,93.942Zm-1.916,4.429a.545.545,0,0,1-.4.282v.034c.041.068.24,0,.162.131,0,.1-.03.342-.274.312-.161.041-.323,0-.376.18,0,.1-.2.105-.319.075.237-.177.394-.417.8-.428-.376-.023-.289-.263-.252-.376a.89.89,0,0,1,.436-.455c.038-.034.161,0,.161.064S277.515,98.337,277.474,98.371Zm-1.052,0,.083.03c.045.1-.038.173-.154.278,0-.146-.045-.244.071-.316Zm1.525-2.212c.079-.034.124.034.124.1s-.079.135-.2.24a.12.12,0,0,1-.124-.131c0-.124.117-.18.207-.218Zm.781-1.172c-.124-.03-.041-.1,0-.169a.131.131,0,0,0,.038-.071c.041-.034.041-.034.038-.068h.041v.1c-.041.06,0,.2-.116.2Zm-.177-.608c.079-.068.034-.27.237-.312.038,0,.079-.068.161,0a3.2,3.2,0,0,1-.357.417.376.376,0,0,0-.15.342c-.041.071-.079.071-.162.071s-.083-.064-.041-.1c.094-.15.113-.323.312-.432Zm-.207-.2c-.038.034-.038.068-.079.071s-.041-.034-.083-.068a.139.139,0,0,0,.079-.034c.041-.011.071-.011.071.023Zm-.1-.917c-.038.139-.038.207-.2.177.038-.109.038-.2.2-.2Zm-.131,1.262c.041.1-.079.105-.12.105a.278.278,0,0,1-.154.274.289.289,0,0,1,.154-.274c0-.041,0-.143.12-.113Zm-.267-.98a.394.394,0,0,1,.161.03.351.351,0,0,1-.154.244c.038-.113-.207-.173-.008-.282Zm-.7,1.172a4.508,4.508,0,0,1,.507-.657c0-.034,0-.034.041,0s.083.03.041.068v.1c-.2.173-.4.316-.432.518,0,.034-.038.105-.079.071s-.12-.075-.079-.109Zm.4,1.589a.488.488,0,0,1-.24.038c.169.237,0,.308-.15.376a.473.473,0,0,1,.15-.376l.237-.308c.083.124-.038.21,0,.263Zm-.218-.778a.139.139,0,0,1,.162-.038c.041.034.083.1.041.135a2.939,2.939,0,0,0-.428.624c0,.034-.041.034-.041.034-.079,0-.083-.068-.083-.1a1.5,1.5,0,0,0,.349-.661Zm-.6,1.844c0-.105,0-.207.158-.244-.038.105-.038.173-.158.244.045.131,0,.237-.154.24C276.523,97.477,276.685,97.473,276.722,97.372Zm-.244-.2c-.038.135-.075.308-.315.346A.376.376,0,0,1,276.478,97.173Zm-.3,1.025c.038-.068.079-.139.2-.071.244.094.323-.041.376-.214a.886.886,0,0,1,.192-.376,1.732,1.732,0,0,0,.507-.725l.041-.034a.278.278,0,0,1,.24-.143.24.24,0,0,1,.083.135c.083.135-.12.071-.116.173.24.03.237-.21.477-.214.086.165.09.27-.109.376-.12.139-.278.244-.316.413.045.135-.075.274-.274.282,0,.034.083.064.083.1a.056.056,0,0,1,0,.1c-.038.038-.079.038-.12-.03s.038-.068.038-.1V97.8c0-.034-.045-.068-.045-.1.12-.038.161-.105.2-.244s0-.27.154-.342c-.323-.026-.443.045-.477.349,0,.068-.075.139-.158.173a.188.188,0,0,0-.071.24c-.161.071-.24.21-.038.274-.2.038-.357.244-.563.045a.883.883,0,0,0-.282,0v.068c-.056-.03-.015-.03-.015-.064Zm.139.71c0,.1-.079.071-.12.038a.131.131,0,0,1-.045-.068C276.193,98.844,276.275,98.874,276.317,98.908Zm-.376-.263a.079.079,0,0,1-.12-.064c-.045-.135.116-.139.237-.244.022.162.022.27-.113.308Zm-.154.376c-.083-.1-.083-.2.038-.274a.045.045,0,0,1,.079.034c.049.094-.034.139-.113.244Zm-.139-.815c.079-.034.162-.071.2-.038a.094.094,0,0,1,0,.135l-.2.244a.233.233,0,0,1,0-.338Zm-.563,1.814a1.593,1.593,0,0,0,.233-.515.594.594,0,0,1,.158-.173.184.184,0,0,1,.12.03c0,.034,0,.034-.038.071a4.326,4.326,0,0,0-.376.751c0,.068-.038.1-.12.071s-.011-.162.026-.233Zm-1.078,2.254c-.083-.064,0-.169.038-.237l.116-.105c.041-.038,0-.173.12-.105s.041.169,0,.237a.083.083,0,0,1-.079.071c-.03.086-.109.225-.192.158Zm.492.259c-.038.105-.038.207-.2.244-.041,0-.083-.034-.045-.068.038-.135.116-.24.154-.376a.154.154,0,0,1,.124.03c.041.086-.034.154-.034.188Zm.113-.342c-.041,0-.12-.03-.124-.064-.041-.169.075-.24.2-.312.007.192.09.289-.068.394Zm.169.338c-.041-.068,0-.1.038-.139.038-.1.158-.173.278-.278-.038.173-.034.308-.2.376a.077.077,0,0,1-.116.06Zm.131-1.33a.086.086,0,0,1,.12,0v.1l-.2.312c-.2-.184-.041-.289.079-.394Zm-.079,1.837a.256.256,0,0,1,.24-.075c.007.158-.075.124-.237.094Zm.2-.244c.083.034.083.068.086.135l-.086-.135.12-.169c.086.116,0,.154-.116.188Zm.237-1.942c-.075.207-.2.21-.319.075-.207-.128-.2,0-.24.075-.116.207-.192.413-.312.586,0,.034,0,.068-.079.068s-.041-.064-.041-.1a1.724,1.724,0,0,1,.5-1.029.143.143,0,0,1,.162,0c.083.068,0,.1-.075.105l-.083.068c.248.2.289.2.406-.041l.116-.105a.848.848,0,0,0-.03.319Zm.034-.338-.041-.034c.079-.105.2-.244.237-.21.09.188-.071.225-.192.263Zm.15,1.285a3.757,3.757,0,0,0,.267-.785c-.2,0-.158.207-.278.21-.083-.1-.086-.237-.049-.27.24-.177.15-.481.428-.691.158-.139.113-.376.192-.515.038-.068-.041-.1-.083-.131-.207-.064-.207-.2-.131-.338.083-.038.079-.105.158-.139s.12-.105.161-.071.086.165.045.169a.124.124,0,0,0-.075.2c.041.068.12.034.2.03,0,.135.09.27.053.439-.079.071.207.131.327.131h-.041c.128.2-.038.169-.158.139s-.244-.03-.282.041.045.135.086.2a.128.128,0,0,1-.079.2c-.12.038-.158.105-.282,0-.041-.034-.041-.1-.12-.064s0,.1.041.135c.124.1.327.162.09.338-.041.068-.237.308-.15.511.045.06-.113.2-.315.27Zm8.763-3.568c0,.169-.2.21-.192.346h-.083s-.079-.03-.083-.064a.342.342,0,0,1,.361-.263Zm1.923-2.558h.12c.041,0,.12,0,.12-.038,0,.068-.079.038-.12.038a5.142,5.142,0,0,1-.481.248c.071-.12.038-.323.364-.229Zm-1.018,1.45c.041,0,.041.034.083.068a.079.079,0,0,1-.079.068c-.041,0-.083,0-.083-.03s.083-.086.083-.086Zm-1.536,3.381c.038-.068.079-.068.12,0v.105c0,.034,0,.068-.041.068s0-.034-.041-.034-.113-.064-.026-.135Zm-.019.92c-.2-.03-.248-.131-.207-.165.158-.177-.053-.477.312-.552.21.3-.075.481-.1.721Zm.338-1.063c-.083,0-.12-.03-.124-.064-.041-.1.038-.173.116-.207a.121.121,0,0,1,.165.1c0,.068-.09.139-.154.192Zm1.4-2.344a7.459,7.459,0,0,1-1.052,1.792c-.079.038-.158.038-.24.075v-.034l.349-.552a.124.124,0,0,0,.045.1c.079-.105.116-.139.075-.207-.041,0-.041.034-.079.034l.661-1.033c.038-.105.075-.207.158-.24s.124.034.086.068Zm.158-.139c-.083,0-.161,0-.207-.1s.158-.173.237-.21.083.034.083.068c.049.113.008.173-.1.244Zm.349-.552v-.1l-.079.1h-.079a.579.579,0,0,1,.229-.481c.041-.068.12-.071.244-.075-.083.038-.12.139-.2.244a.068.068,0,0,0-.053.045.481.481,0,0,0,0-.146c-.12.071-.116.173-.154.274a.455.455,0,0,0,.135-.109.127.127,0,0,0,0,.075c.041.064.12,0,.2.06a.267.267,0,0,1-.244.116Zm.233-.376a.35.35,0,0,0,.116-.173c0,.034.041.034.083.034a.2.2,0,0,1-.2.139Zm.071-.477c0-.068.079-.071.158-.038-.049.068-.071.1-.154.038Zm.2-.278v-.1l.041-.034V95.99c0-.068.038-.105.158-.139l.083.064c.008.135-.079.207-.278.278Zm3.257-.62c-.041,0-.083-.03-.083-.064.037-.139.244,0,.282-.075.045.135-.071.173-.2.139Zm1.153-.774c-.161.038-.278.143-.481.113,0,.1.045.2-.116.24a.169.169,0,0,1-.124-.03c0-.135.079-.207.24-.21.158-.173.192-.413.511-.556-.154.173.214.334-.019.443Zm.109-.477c-.083-.068,0-.173.079-.173a.886.886,0,0,1,.376.263c-.244.008-.364.041-.451-.09Zm.522-.252c-.083-.03-.244,0-.248-.1s.161-.038.323-.109c-.034.105-.075.128-.071.207Zm1.735-1.773c-.083.034-.083.034-.079.105a.087.087,0,0,0,.041.064c-.406-.023-.357.316-.473.488-.113.342-.473.488-.751.631a.214.214,0,0,0-.161.105c-.034.169-.034.169-.319.075.116-.139.316-.248.432-.421a1.9,1.9,0,0,1,.556-.522c.158-.173.4-.282.511-.488s.4-.346.635-.624a.665.665,0,0,1-.387.586Zm1.146-1.149c-.079.139-.278.21-.233.413-.041.105-.244,0-.376.045.116-.207.315-.376.432-.59,0-.1.116-.105.2-.038s.019.1-.019.169Zm.376,5.529a3.84,3.84,0,0,1,.9-1.21.319.319,0,0,0,.12-.038,11.455,11.455,0,0,1-.856,1.348c-.038.034-.038.1-.12.068s-.083-.1-.041-.169Zm-.041,1.7c.038,0,.041.034,0,.068s0,.034-.038.068c-.041-.064-.041-.131.038-.135Zm-.729-.053c.079-.1.162-.038.24-.038-.041-.068-.165-.1-.045-.2,0-.034.079-.038.12.03.165.1.086.2,0,.274s.045.2-.075.237-.12,0-.162-.03c-.075-.1-.116-.165-.079-.27ZM292.889,101c-.041.034-.041.1-.079.207s0,.135-.079.1-.079-.064-.124-.165a.943.943,0,0,1,.229-.65c.244.161.248.334.053.507Zm.023-.714c0,.034.041.068.041.068h-.041c.041,0,0-.034,0-.068s0-.1.116-.173c.041.1.045.169-.116.173Zm.349-.552a.3.3,0,0,1-.124-.1.218.218,0,0,1,.2-.143c.083,0,.12,0,.124.068s0,.169-.2.173Zm.233-.376c0-.237.116-.24.278-.21a.856.856,0,0,1-.278.207Zm.725-.188a.064.064,0,0,1-.083,0,.627.627,0,0,0-.285-.165c-.083-.064-.124-.064-.124-.131,0-.135.116-.105.158-.105.282-.075.289.2.413.331,0,0-.038.068-.079.068Zm5.713.83c-.079,0-.083-.068-.12-.1s0-.1.038-.1,1.345-1.127,1.349-1.052S299.932,100,299.932,100Zm-1.277.541c-.083.034-.24.105-.285,0a.162.162,0,0,0-.282-.06c-.083,0-.12.071-.161,0s.038-.1.038-.135c.552-.421.988-.875,1.465-1.258.237-.143,1.619-1.5,1.777-1.675.161-.105.154-.342.4-.312.041,0,.038-.071.038-.105s.038-.1.158-.105a.271.271,0,0,0,.173,0,.358.358,0,0,1-.049.128,3.35,3.35,0,0,0-.132.376,2.316,2.316,0,0,0-.218.255,35.977,35.977,0,0,1-2.919,2.877Zm2.656-2.171c.079-.071.158-.173.2-.173l.094-.026a1.148,1.148,0,0,1-.038.192.462.462,0,0,1-.252-.008Zm14.811-7.5c0-.034-.041-.068-.12-.068s.394-.312.394-.244S316.242,90.768,316.121,90.874Zm.631-.695c-.041-.034-.041-.034-.041-.1a.034.034,0,0,1,.038-.034l.041.03A.147.147,0,0,1,316.752,90.179Z" transform="translate(-170.534 -53.8)" fill="#c29820"/>
    <path id="Path_604" data-name="Path 604" d="M108.3.52h2.085V12.093H108.3V7.266h-5.762v4.827H100.45V.52h2.085v4.8h5.77Z" transform="translate(-62.722 -0.325)" fill="#c29820"/>
    <path id="Path_605" data-name="Path 605" d="M147.15.52h7.7V2.372H149.22V5.283h5.507V7.135h-5.5v3.106h5.751v1.852H147.15Z" transform="translate(-91.881 -0.325)" fill="#c29820"/>
    <path id="Path_606" data-name="Path 606" d="M186.91,12.093V.52h7.512V2.372h-5.432V5.5H194.3V7.349h-5.308v4.744Z" transform="translate(-116.706 -0.325)" fill="#c29820"/>
    <path id="Path_607" data-name="Path 607" d="M60.147,8.237a4.181,4.181,0,0,1-3.587,1.968,4.024,4.024,0,0,1-4.132-3.9,4.024,4.024,0,0,1,4.132-3.9,4.169,4.169,0,0,1,3.617,2.017h2.047A5.987,5.987,0,0,0,56.56.559a5.9,5.9,0,0,0-6.01,5.762,5.892,5.892,0,0,0,6.01,5.762,6.01,6.01,0,0,0,5.646-3.846Z" transform="translate(-31.566 -0.349)" fill="#c29820"/>
    <path id="Path_608" data-name="Path 608" d="M229.87,11.573V0h.928V10.713h5.7v.86Z" transform="translate(-143.529)" fill="#fff"/>
    <path id="Path_609" data-name="Path 609" d="M319.41,11.573l-5.946-5.736v5.736h-.924V0h.924V5.653L319.26,0h1.258l-5.927,5.721,6.085,5.852Z" transform="translate(-195.147)" fill="#fff"/>
    <path id="Path_610" data-name="Path 610" d="M353.47,11.573V0h7.107V.86h-6.183v4.4h6.066v.86h-6.066v4.594h6.3v.86Z" transform="translate(-220.702)" fill="#fff"/>
    <path id="Path_611" data-name="Path 611" d="M274.889,6.727V0h-.928V6.618h0v.815c0,1.4-1.3,3.452-3,3.452h-1.307c-1.717,0-3.069-2.01-3.1-3.471V0h-.924V7.422c0,2.01,1.837,4.331,4.042,4.331h1.307c2.209,0,3.967-2.543,3.967-4.368Z" transform="translate(-165.857)" fill="#fff"/>
  </g>
</svg>
