<svg xmlns="http://www.w3.org/2000/svg" width="9" height="18" viewBox="0 0 9 18">
  <path id="Facebook" d="M28.283,19.643c-.087.873-.24,1.715-.384,2.5-.051.278-.143.3-.375.3-1.005.006-1.441,0-2.4.007-.251.007-.27.248-.27.376q0,3.437,0,6.875c0,.4-.007.922-.395.922-1.25,0-.659.02-2.375.02-.407,0-.456.01-.456-.395q0-3.736,0-7.471c0-.375-.007-.382-.375-.382-.622,0-.9,0-1.518,0-.436,0-.4-.04-.415-.4-.021-.534-.021-2.033-.021-2.471,0-.17.055-.225.225-.223.6.008,1.2-.006,1.8.008.213,0,.283-.053.28-.273-.01-.847-.026-1.7.008-2.541a3.705,3.705,0,0,1,3.07-3.7,8.97,8.97,0,0,1,2.41-.126c.338.01.64.047,1.012.074.156.011.186.073.183.208-.022.847-.041,1.694-.053,2.541,0,.168-.078.2-.225.2-.711,0-1.424-.057-2.134.014a.9.9,0,0,0-.929.923c-.075.837-.015,1.676-.035,2.514,0,.2.131.165.247.166h2.813c.335,0,.353,0,.319.341" transform="translate(-19.294 -12.644)" fill="#fff"/>
</svg>
