<svg xmlns="http://www.w3.org/2000/svg" width="18" height="18" viewBox="0 0 18 18">
  <path id="Instagram" d="M28.4,19.423c0-1.7.016-3.4,0-5.1-.03-2.62-1.292-3.9-3.9-3.922q-5.1-.036-10.2,0c-2.537.021-3.849,1.328-3.868,3.847q-.038,5.1,0,10.192c.014,2.6,1.3,3.9,3.908,3.922q5.1.036,10.2,0c2.545-.021,3.822-1.309,3.861-3.847C28.422,22.821,28.4,21.122,28.4,19.423Zm-3.433-7.006c1.346,0,1.346,0,1.345,1.759,0,1.339,0,1.339-1.758,1.338-1.272,0-1.272,0-1.272-1.579C23.283,12.417,23.283,12.417,24.968,12.417Zm-5.589,3.79a3.173,3.173,0,1,1-3.127,3.33A3.212,3.212,0,0,1,19.379,16.207Zm7.388,8.359c-.028,1.482-.669,2.15-2.146,2.162q-5.213.043-10.427,0c-1.453-.012-2.121-.7-2.146-2.177-.036-2.075.008-4.152-.021-6.227-.008-.574.133-.773.752-.778.731-.006,1.1-.006,1.982.011-.69,2.57-.1,4.666,2.142,6.052a4.557,4.557,0,0,0,5.328-.2,5.035,5.035,0,0,0,1.858-5.843c1.3,0,2.041,0,2.041,0s.652-.1.644,1.258C26.774,20.375,26.8,23.019,26.767,24.566Z" transform="translate(-10.409 -10.386)" fill="#fff"/>
</svg>
